<svg width="144" height="30" fill="none" xmlns="http://www.w3.org/2000/svg"><g clip-path="url(#a)" fill="#fff"><path d="M2.987 3.377v10.034c0 7.598-.493 8.236-1.711 8.236-.464 0-1.015-.058-1.276-.145v2.929c.754.203 1.479.261 2.407.261 3.335 0 4.495-3.103 4.495-10.092V6.567h4.234v17.748h3.973V3.377H2.987ZM18.773 10.163v7.598c0 5.278 2.842 7.047 6.815 7.047 4.03 0 6.728-1.711 6.728-7.047v-7.598C32.316 4.827 29.619 3 25.588 3c-3.973 0-6.815 1.885-6.815 7.163Zm6.815-3.973c1.71 0 2.668 1.334 2.668 3.567v8.497c0 2.204-.957 3.364-2.668 3.364-1.885 0-2.755-1.189-2.755-3.364V9.699c0-2.233.87-3.509 2.755-3.509ZM39.773 14.629h2.291c1.48 0 2.32 1.392 2.32 3.451 0 2.349-.84 3.248-2.32 3.248h-2.29v-6.699ZM35.8 3.377v20.938h7.656c3.161 0 4.988-2.668 4.988-6.699 0-2.958-2.088-6.177-5.336-6.177h-3.335V6.364h7.134V3.377H35.8ZM55.92 14.629h2.29c1.48 0 2.32 1.392 2.32 3.451 0 2.349-.84 3.248-2.32 3.248h-2.29v-6.699ZM51.947 3.377v20.938h7.656c3.16 0 4.988-2.668 4.988-6.699 0-2.958-2.088-6.177-5.336-6.177H55.92V6.364h7.134V3.377H51.947ZM68.093 3.377v20.938h4.292l5.8-15.196h.029c-.406 1.885-.493 4.089-.493 7.279v7.917h3.712V3.377H77.14l-5.8 15.225h-.03c.378-1.74.494-4.901.494-7.395v-7.83h-3.712ZM88.627 9.409c0-1.885.812-3.219 2.378-3.219 1.682 0 2.204 1.537 2.204 2.929 0 1.856-1.13 2.668-2.61 2.668h-.84v2.987h.84c1.653 0 2.9.899 2.9 3.364 0 2.175-.696 3.48-2.61 3.48-2 0-2.58-1.421-2.58-2.871H84.45c0 4.495 3.248 6.061 6.67 6.061 4.147 0 6.438-2.088 6.438-6.293 0-3.161-1.42-4.872-3.509-5.394 1.914-.493 3.22-2.378 3.22-4.553C97.27 4.334 93.817 3 91.004 3c-3.944 0-6.235 2.755-6.235 6.409h3.857ZM101.065 3.377v20.938h3.712V5.378h.029l3.973 18.937h2.842l3.973-18.966h.029v18.966h3.712V3.377h-6.351L110.2 16.978l-2.784-13.601h-6.351ZM134.668 6.364h2.146c1.798 0 2.407.899 2.407 2.668 0 1.798-.725 2.842-2.465 2.842h-2.088v-5.51Zm0 8.497h2.552c1.479 0 2.204 1.16 2.204 3.219 0 2.349-.725 3.248-2.204 3.248h-2.552v-6.467Zm-3.973 9.454h8.004c3.219 0 4.785-2.581 4.785-6.206 0-2.726-1.044-4.205-3.103-5.046 1.74-.348 2.813-2.581 2.813-4.582 0-2.668-1.479-5.104-5.162-5.104h-7.337v20.938Z"/></g><defs><clipPath id="a"><path fill="#fff" transform="translate(0 1)" d="M0 0h143.484v28H0z"/></clipPath></defs></svg>