<svg width="183" height="30" fill="none" xmlns="http://www.w3.org/2000/svg"><path fill-rule="evenodd" clip-rule="evenodd" d="M16.14 1.172c-3.395 2.036-5.983 5.962-7.025 10.77 1.553.427 3.325.67 5.203.67 6.104 0 11.082-2.557 11.082-5.69a2.92 2.92 0 0 0-.049-.53 13.333 13.333 0 0 0-3.526-3.254l.306-.457C26.249 5.243 29 9.81 29 15 29 22.985 22.486 29.5 14.5 29.5 6.513 29.5 0 22.986 0 15 0 7.013 6.514.5 14.5.5c1.939 0 3.791.385 5.485 1.081l-.221.495a13.027 13.027 0 0 0-3.624-.904ZM27.6 11.097c-1.31 4.156-6.676 7.284-13.063 7.284-2.12 0-4.127-.293-5.911-.844.124 3.472 1.01 6.703 2.436 9.407.22.065.443.125.668.179a17.544 17.544 0 0 1-1.842-8.651 20.875 20.875 0 0 0 5.126.5c-.006.295-.006.593 0 .894.062 2.691.622 5.239 1.566 7.499 6.43-.874 11.413-6.408 11.413-13.07 0-1.102-.136-2.174-.393-3.198ZM5.081 23.194a17.58 17.58 0 0 1-1.606-7.389c0-.394.013-.786.038-1.173a8.028 8.028 0 0 1-1.725-2.482A13.134 13.134 0 0 0 5.08 23.194ZM3.355 7.752c.193.669.613 1.301 1.22 1.875 1.252-3.365 3.495-6.161 6.317-7.93a13.273 13.273 0 0 0-7.537 6.055Zm10.172-1.281a2.337 2.337 0 0 1 2.333 2.332 2.337 2.337 0 0 1-2.333 2.333 2.337 2.337 0 0 1-2.333-2.333 2.337 2.337 0 0 1 2.333-2.332Z" fill="#fff"/><g clip-path="url(#a)" fill="#fff"><path d="M41.577 3.377v10.034c0 7.598-.493 8.236-1.71 8.236-.465 0-1.016-.058-1.277-.145v2.929c.754.203 1.48.261 2.407.261 3.335 0 4.495-3.103 4.495-10.092V6.567h4.234v17.748H53.7V3.377H41.577ZM57.363 10.163v7.598c0 5.278 2.842 7.047 6.815 7.047 4.03 0 6.728-1.711 6.728-7.047v-7.598C70.906 4.827 68.209 3 64.178 3c-3.973 0-6.815 1.885-6.815 7.163Zm6.815-3.973c1.71 0 2.668 1.334 2.668 3.567v8.497c0 2.204-.957 3.364-2.668 3.364-1.885 0-2.755-1.189-2.755-3.364V9.699c0-2.233.87-3.509 2.755-3.509ZM78.364 14.629h2.29c1.48 0 2.32 1.392 2.32 3.451 0 2.349-.84 3.248-2.32 3.248h-2.29v-6.699ZM74.39 3.377v20.938h7.656c3.161 0 4.988-2.668 4.988-6.699 0-2.958-2.088-6.177-5.336-6.177h-3.334V6.364h7.133V3.377H74.392ZM94.51 14.629h2.29c1.48 0 2.32 1.392 2.32 3.451 0 2.349-.84 3.248-2.32 3.248h-2.29v-6.699ZM90.537 3.377v20.938h7.656c3.161 0 4.988-2.668 4.988-6.699 0-2.958-2.088-6.177-5.336-6.177H94.51V6.364h7.134V3.377H90.537ZM106.683 3.377v20.938h4.292l5.8-15.196h.029c-.406 1.885-.493 4.089-.493 7.279v7.917h3.712V3.377h-4.292l-5.8 15.225h-.029c.377-1.74.493-4.901.493-7.395v-7.83h-3.712ZM127.217 9.409c0-1.885.812-3.219 2.378-3.219 1.682 0 2.204 1.537 2.204 2.929 0 1.856-1.131 2.668-2.61 2.668h-.841v2.987h.841c1.653 0 2.9.899 2.9 3.364 0 2.175-.696 3.48-2.61 3.48-2.001 0-2.581-1.421-2.581-2.871h-3.857c0 4.495 3.248 6.061 6.67 6.061 4.147 0 6.438-2.088 6.438-6.293 0-3.161-1.421-4.872-3.509-5.394 1.914-.493 3.219-2.378 3.219-4.553 0-4.234-3.451-5.568-6.264-5.568-3.944 0-6.235 2.755-6.235 6.409h3.857ZM139.655 3.377v20.938h3.712V5.378h.029l3.973 18.937h2.842l3.973-18.966h.029v18.966h3.712V3.377h-6.351l-2.784 13.601-2.784-13.601h-6.351ZM173.259 6.364h2.146c1.798 0 2.407.899 2.407 2.668 0 1.798-.725 2.842-2.465 2.842h-2.088v-5.51Zm0 8.497h2.552c1.479 0 2.204 1.16 2.204 3.219 0 2.349-.725 3.248-2.204 3.248h-2.552v-6.467Zm-3.973 9.454h8.004c3.219 0 4.785-2.581 4.785-6.206 0-2.726-1.044-4.205-3.103-5.046 1.74-.348 2.813-2.581 2.813-4.582 0-2.668-1.479-5.104-5.162-5.104h-7.337v20.938Z"/></g><defs><clipPath id="a"><path fill="#fff" transform="translate(38.59 1)" d="M0 0h143.484v28H0z"/></clipPath></defs></svg>