<svg width="142" height="46" viewBox="0 0 142 46" fill="none" xmlns="http://www.w3.org/2000/svg">
<g clip-path="url(#clip0)">
<path fill-rule="evenodd" clip-rule="evenodd" d="M22.3437 18.0111V27.1321C22.3437 33.4681 25.7554 35.5917 30.5248 35.5917C35.3638 35.5917 38.6016 33.5377 38.6016 27.1321V18.0111C38.6016 11.6055 35.3638 9.41235 30.5248 9.41235C25.7554 9.41235 22.3437 11.6752 22.3437 18.0111ZM30.5248 13.2417C32.5787 13.2417 33.7276 14.8431 33.7276 17.5237V27.724C33.7276 30.3697 32.5787 31.7623 30.5248 31.7623C28.2619 31.7623 27.2175 30.3349 27.2175 27.724V17.4541C27.2175 14.7735 28.2619 13.2417 30.5248 13.2417Z" fill="white"/>
<path d="M3.5858 9.86499V21.9103C3.5858 31.0313 2.9939 31.7972 1.5318 31.7972C0.974803 31.7972 0.3133 31.7276 0 31.6231V35.1392C0.9052 35.3829 1.7755 35.4525 2.8895 35.4525C6.893 35.4525 8.2855 31.7275 8.2855 23.3376V13.6944H13.3682V35H18.1376V9.86499H3.5858Z" fill="white"/>
<path fill-rule="evenodd" clip-rule="evenodd" d="M42.5926 35V9.86499H55.9256V13.4507H47.3616V19.543H51.3656C55.2646 19.543 57.7706 23.4072 57.7706 26.9582C57.7706 31.7972 55.5776 35 51.7826 35H42.5926ZM50.1116 23.3724H47.3616V31.4142H50.1116C51.8876 31.4142 52.8966 30.335 52.8966 27.5152C52.8966 25.0435 51.8876 23.3724 50.1116 23.3724Z" fill="white"/>
<path fill-rule="evenodd" clip-rule="evenodd" d="M61.7826 9.86499V35H70.9736C74.7686 35 76.9616 31.7972 76.9616 26.9582C76.9616 23.4072 74.4546 19.543 70.5556 19.543H66.5526V13.4507H75.1166V9.86499H61.7826ZM66.5526 23.3724H69.3026C71.0786 23.3724 72.0876 25.0435 72.0876 27.5152C72.0876 30.335 71.0786 31.4142 69.3026 31.4142H66.5526V23.3724Z" fill="white"/>
<path d="M80.9736 35V9.86499H85.4296V19.2645C85.4296 22.2584 85.2906 26.053 84.8376 28.1418H84.8726L91.8356 9.86499H96.9876V35H92.5316V25.496C92.5316 21.6666 92.6356 19.0208 93.1236 16.758H93.0886L86.1256 35H80.9736Z" fill="white"/>
<path d="M105.433 17.106C105.433 14.8431 106.407 13.2417 108.287 13.2417C110.307 13.2417 110.933 15.0868 110.933 16.7579C110.933 18.9859 109.575 19.9607 107.8 19.9607H106.79V23.5464H107.8C109.784 23.5464 111.281 24.6256 111.281 27.5847C111.281 30.1957 110.446 31.7623 108.148 31.7623C105.746 31.7623 105.05 30.0564 105.05 28.3158H100.42C100.42 33.7118 104.319 35.5917 108.427 35.5917C113.405 35.5917 116.155 33.0852 116.155 28.0373C116.155 24.2427 114.449 22.1887 111.943 21.5621C114.24 20.9702 115.807 18.7074 115.807 16.0964C115.807 11.0137 111.664 9.41235 108.287 9.41235C103.553 9.41235 100.803 12.7195 100.803 17.106H105.433Z" fill="white"/>
<path d="M120.171 35V9.86499H127.795L131.137 26.1923L134.48 9.86499H142.104V35H137.648V12.2323H137.613L132.843 35H129.432L124.662 12.2671H124.627V35H120.171Z" fill="white"/>
</g>
<defs>
<clipPath id="clip0">
<rect width="142" height="46" fill="white"/>
</clipPath>
</defs>
</svg>
