<svg width="96" height="32" viewBox="0 0 96 32" fill="none" xmlns="http://www.w3.org/2000/svg">
<path d="M2.67495 7.49302V15.4036C2.67495 21.3937 2.28628 21.8967 1.32604 21.8967C0.96023 21.8967 0.525835 21.8509 0.320068 21.7823V24.0915C0.914504 24.2515 1.48608 24.2973 2.21769 24.2973C4.84693 24.2973 5.76144 21.8509 5.76144 16.341V10.0079H9.09943V24H12.2316V7.49302H2.67495Z" fill="white"/>
<path d="M14.994 12.8429V18.833C14.994 22.9941 17.2345 24.3887 20.3667 24.3887C23.5447 24.3887 25.6709 23.0398 25.6709 18.833V12.8429C25.6709 8.63616 23.5447 7.1958 20.3667 7.1958C17.2345 7.1958 14.994 8.68189 14.994 12.8429ZM20.3667 9.71072C21.7157 9.71072 22.4701 10.7624 22.4701 12.5229V19.2217C22.4701 20.9593 21.7157 21.8738 20.3667 21.8738C18.8806 21.8738 18.1948 20.9364 18.1948 19.2217V12.4771C18.1948 10.7167 18.8806 9.71072 20.3667 9.71072Z" fill="white"/>
<path d="M31.4242 16.3638H33.2303C34.3964 16.3638 35.0594 17.4613 35.0594 19.0845C35.0594 20.9364 34.3964 21.6452 33.2303 21.6452H31.4242V16.3638ZM28.292 7.49302V24H34.3278C36.8198 24 38.2602 21.8967 38.2602 18.7187C38.2602 16.3867 36.6141 13.8489 34.0534 13.8489H31.4242V9.8479H37.0485V7.49302H28.292Z" fill="white"/>
<path d="M44.0274 16.3638H45.8335C46.9995 16.3638 47.6626 17.4613 47.6626 19.0845C47.6626 20.9364 46.9995 21.6452 45.8335 21.6452H44.0274V16.3638ZM40.8951 7.49302V24H46.931C49.423 24 50.8634 21.8967 50.8634 18.7187C50.8634 16.3867 49.2172 13.8489 46.6566 13.8489H44.0274V9.8479H49.6516V7.49302H40.8951Z" fill="white"/>
<path d="M53.4983 7.49302V24H56.882L61.4546 12.0199H61.4775C61.1574 13.506 61.0888 15.2435 61.0888 17.7585V24H64.0153V7.49302H60.6316L56.059 19.496H56.0361C56.3333 18.1243 56.4248 15.6322 56.4248 13.666V7.49302H53.4983Z" fill="white"/>
<path d="M69.5611 12.2485C69.5611 10.7624 70.2013 9.71072 71.4359 9.71072C72.7619 9.71072 73.1735 10.9225 73.1735 12.0199C73.1735 13.4831 72.2818 14.1233 71.1158 14.1233H70.4528V16.4781H71.1158C72.419 16.4781 73.4021 17.1869 73.4021 19.1302C73.4021 20.845 72.8534 21.8738 71.3444 21.8738C69.7669 21.8738 69.3096 20.7535 69.3096 19.6104H66.2689C66.2689 23.1541 68.8295 24.3887 71.5273 24.3887C74.7967 24.3887 76.6029 22.7426 76.6029 19.4275C76.6029 16.9354 75.4826 15.5865 73.8365 15.175C75.3454 14.7863 76.3743 13.3002 76.3743 11.5855C76.3743 8.24749 73.6536 7.1958 71.4359 7.1958C68.3265 7.1958 66.5204 9.36778 66.5204 12.2485H69.5611Z" fill="white"/>
<path d="M79.2405 7.49302V24H82.167V9.07056H82.1898L85.3221 24H87.5626L90.6949 9.0477H90.7177V24H93.6442V7.49302H88.6372L86.4424 18.2157L84.2475 7.49302H79.2405Z" fill="white"/>
</svg>
