<svg width="138" height="32" viewBox="0 0 138 32" fill="none" xmlns="http://www.w3.org/2000/svg">
<path fill-rule="evenodd" clip-rule="evenodd" d="M17.8094 0.741569C14.0634 2.98851 11.2076 7.32046 10.0581 12.6261C11.7713 13.0973 13.7263 13.3642 15.7995 13.3642C22.5341 13.3642 28.0274 10.5439 28.0274 7.08555C28.0274 6.88817 28.0093 6.69357 27.9739 6.50106C26.9047 5.07887 25.5865 3.86238 24.0832 2.91067L24.4203 2.4061C28.9642 5.23337 32 10.2728 32 16.0003C32 24.8123 24.8123 32 16.0003 32C7.18702 32 0 24.8123 0 16.0003C0 7.18702 7.18772 0 16.0003 0C18.1396 0 20.1836 0.424649 22.0524 1.19332L21.8085 1.73959C20.5303 1.21655 19.1835 0.880424 17.8094 0.741569V0.741569ZM30.4564 11.6934C29.0115 16.279 23.0901 19.7311 16.0414 19.7311C13.702 19.7311 11.4877 19.4079 9.51945 18.7998C9.65637 22.6307 10.6335 26.1953 12.207 29.179C12.4503 29.2513 12.6963 29.3173 12.9444 29.3771C11.6413 26.7937 10.8949 23.817 10.8949 20.6499C10.8949 20.3747 10.9011 20.103 10.9122 19.8312C12.5107 20.1975 14.2392 20.3893 16.0414 20.3893C16.2172 20.3893 16.393 20.3865 16.5682 20.3823C16.5612 20.7083 16.5612 21.0377 16.5689 21.3692C16.6363 24.339 17.2541 27.1503 18.2966 29.6439C25.3912 28.68 30.8901 22.573 30.8901 15.2213C30.8901 14.0057 30.7393 12.8235 30.4564 11.6934ZM5.60589 25.0416C4.47373 22.5952 3.83433 19.8222 3.83433 16.8886C3.83433 16.4535 3.84892 16.0212 3.87603 15.5938C3.06149 14.7855 2.41513 13.8688 1.97242 12.8555C1.84365 13.6377 1.7788 14.4292 1.77851 15.2219C1.77851 19.0007 3.23037 22.45 5.60589 25.0416V25.0416ZM3.70297 8.00226C3.91564 8.74035 4.37991 9.43813 5.04989 10.0713C6.43086 6.35788 8.90646 3.27277 12.0201 1.3212C8.50639 2.42346 5.53686 4.80886 3.70297 8.00226V8.00226ZM14.928 6.58863C15.6101 6.58991 16.264 6.86147 16.7463 7.34383C17.2287 7.8262 17.5003 8.48005 17.5016 9.16222C17.5003 9.84438 17.2287 10.4982 16.7463 10.9806C16.264 11.463 15.6101 11.7345 14.928 11.7358C14.2457 11.7347 13.5916 11.4632 13.1091 10.9809C12.6266 10.4985 12.355 9.8445 12.3537 9.16222C12.3551 8.47999 12.6269 7.82613 13.1093 7.34379C13.5918 6.86145 14.2457 6.58991 14.928 6.58863V6.58863Z" fill="white"/>
<path d="M44.6749 7.49302V15.4036C44.6749 21.3937 44.2863 21.8967 43.326 21.8967C42.9602 21.8967 42.5258 21.8509 42.3201 21.7823V24.0915C42.9145 24.2515 43.4861 24.2973 44.2177 24.2973C46.8469 24.2973 47.7614 21.8509 47.7614 16.341V10.0079H51.0994V24H54.2316V7.49302H44.6749Z" fill="white"/>
<path d="M56.994 12.8429V18.833C56.994 22.9941 59.2345 24.3887 62.3667 24.3887C65.5447 24.3887 67.6709 23.0398 67.6709 18.833V12.8429C67.6709 8.63616 65.5447 7.1958 62.3667 7.1958C59.2345 7.1958 56.994 8.68189 56.994 12.8429ZM62.3667 9.71072C63.7157 9.71072 64.4701 10.7624 64.4701 12.5229V19.2217C64.4701 20.9593 63.7157 21.8738 62.3667 21.8738C60.8806 21.8738 60.1948 20.9364 60.1948 19.2217V12.4771C60.1948 10.7167 60.8806 9.71072 62.3667 9.71072Z" fill="white"/>
<path d="M73.4242 16.3638H75.2303C76.3964 16.3638 77.0594 17.4613 77.0594 19.0845C77.0594 20.9364 76.3964 21.6452 75.2303 21.6452H73.4242V16.3638ZM70.292 7.49302V24H76.3278C78.8198 24 80.2602 21.8967 80.2602 18.7187C80.2602 16.3867 78.6141 13.8489 76.0534 13.8489H73.4242V9.8479H79.0485V7.49302H70.292Z" fill="white"/>
<path d="M86.0274 16.3638H87.8335C88.9995 16.3638 89.6626 17.4613 89.6626 19.0845C89.6626 20.9364 88.9995 21.6452 87.8335 21.6452H86.0274V16.3638ZM82.8951 7.49302V24H88.931C91.423 24 92.8634 21.8967 92.8634 18.7187C92.8634 16.3867 91.2172 13.8489 88.6566 13.8489H86.0274V9.8479H91.6516V7.49302H82.8951Z" fill="white"/>
<path d="M95.4983 7.49302V24H98.882L103.455 12.0199H103.477C103.157 13.506 103.089 15.2435 103.089 17.7585V24H106.015V7.49302H102.632L98.059 19.496H98.0361C98.3333 18.1243 98.4248 15.6322 98.4248 13.666V7.49302H95.4983Z" fill="white"/>
<path d="M111.561 12.2485C111.561 10.7624 112.201 9.71072 113.436 9.71072C114.762 9.71072 115.173 10.9225 115.173 12.0199C115.173 13.4831 114.282 14.1233 113.116 14.1233H112.453V16.4781H113.116C114.419 16.4781 115.402 17.1869 115.402 19.1302C115.402 20.845 114.853 21.8738 113.344 21.8738C111.767 21.8738 111.31 20.7535 111.31 19.6104H108.269C108.269 23.1541 110.83 24.3887 113.527 24.3887C116.797 24.3887 118.603 22.7426 118.603 19.4275C118.603 16.9354 117.483 15.5865 115.836 15.175C117.345 14.7863 118.374 13.3002 118.374 11.5855C118.374 8.24749 115.654 7.1958 113.436 7.1958C110.327 7.1958 108.52 9.36778 108.52 12.2485H111.561Z" fill="white"/>
<path d="M121.241 7.49302V24H124.167V9.07056H124.19L127.322 24H129.563L132.695 9.0477H132.718V24H135.644V7.49302H130.637L128.442 18.2157L126.248 7.49302H121.241Z" fill="white"/>
</svg>
