<svg width="48" height="35" viewBox="0 0 48 35" fill="none" xmlns="http://www.w3.org/2000/svg">
<ellipse cx="5.6162" cy="5.70472" rx="5.6162" ry="5.70472" fill="#F1B52A"/>
<path fill-rule="evenodd" clip-rule="evenodd" d="M5.1944 16.0735H4.41211V19.5815H6.79414V18.1034H12.1735V19.5815H14.3667V16.0735H13.7556V4.7937H6.38102V8.91919C6.38102 10.6995 6.29312 12.0828 6.11732 13.0692C5.94739 14.0556 5.63975 15.057 5.1944 16.0735ZM11.2945 16.0735H7.63795C8.04814 15.1773 8.34406 14.2751 8.52572 13.3669C8.71323 12.4527 8.80699 11.2709 8.80699 9.82137V6.83263H11.2945V16.0735ZM17.1974 4.8002H14.6923L17.9916 16.4806C17.7513 17.1963 17.3851 17.5541 16.8929 17.5541C16.7933 17.5541 16.6995 17.5451 16.6116 17.5271C16.5296 17.509 16.4446 17.485 16.3567 17.4549C16.2747 17.4248 16.2249 17.4068 16.2073 17.4008V19.3405C16.6936 19.5029 17.1917 19.5841 17.7015 19.5841C18.311 19.5841 18.8208 19.3675 19.231 18.9345C19.647 18.4954 20.025 17.7556 20.3648 16.7151L24.1676 4.8002H21.6404L19.3575 12.7452L17.1974 4.8002ZM21.6045 19.3968L25.7449 4.8002H29.7984V14.0385L32.4258 4.8002H36.5524V19.3968H34.1187V6.04124H34.1011L30.1419 19.3968H27.8941V6.08129H27.8766L24.0963 19.3968H21.6045ZM40.6157 4.8002L37.3656 19.3968H39.8313L40.7849 14.9995H43.58L44.3665 19.3968H46.8586L43.9295 4.8002H40.6157ZM43.2724 13.0238H41.0925L42.2791 6.44722L43.2724 13.0238ZM4.42999 33.9933V20.6501H11.33V22.5537H6.89991V25.7925H8.96551C9.61009 25.7925 10.1902 25.991 10.7059 26.3879C11.2215 26.7849 11.6112 27.2811 11.8749 27.8765C12.1445 28.472 12.2792 29.0885 12.2792 29.726C12.2792 31.0251 12.0038 32.0627 11.453 32.8385C10.908 33.6084 10.1521 33.9933 9.18525 33.9933H4.42999ZM6.89991 32.0897H8.32385C8.7985 32.0897 9.15595 31.9273 9.3962 31.6025C9.64232 31.2778 9.76538 30.7515 9.76538 30.0237C9.76538 29.3561 9.63646 28.8238 9.37863 28.4269C9.12665 28.0239 8.77506 27.8224 8.32385 27.8224H6.89991V32.0897ZM13.5246 20.6501V33.9933H16.1967L19.7917 24.3129H19.8093C19.6042 25.2813 19.5016 26.827 19.5016 28.9501V33.9933H21.8045V20.6501H19.1412L15.5462 30.3575H15.5286C15.7337 29.4012 15.8363 27.8284 15.8363 25.6391V20.6501H13.5246ZM23.4176 33.9933V20.6501H25.8876V26.3468H29.1486V20.6501H31.6097V33.9933H29.1486V28.3767H25.8876V33.9933H23.4176ZM33.2228 20.6501V33.9933H35.6927V22.689H38.7913L39.8118 20.6501H33.2228ZM39.4889 24.9598V29.8015C39.4889 32.8005 40.9147 34.3 43.7664 34.3C44.4245 34.3 45.0025 34.2217 45.5005 34.0651C45.9985 33.9146 46.4402 33.6707 46.8255 33.3334C47.2109 32.9962 47.5014 32.5325 47.697 31.9423C47.8986 31.3462 47.9994 30.6326 47.9994 29.8015V24.9598C47.9994 24.1288 47.8986 23.4152 47.697 22.819C47.5014 22.2168 47.2109 21.7411 46.8255 21.3918C46.4461 21.0425 46.0044 20.7896 45.5005 20.633C45.0025 20.4704 44.4245 20.3891 43.7664 20.3891C43.1202 20.3891 42.5421 20.4704 42.0323 20.633C41.5284 20.7956 41.0807 21.0546 40.6895 21.4099C40.3041 21.7591 40.0077 22.2349 39.8002 22.8371C39.5927 23.4333 39.4889 24.1408 39.4889 24.9598ZM43.7664 32.2675C42.6162 32.2675 42.0412 31.5509 42.0412 30.1177V24.6617C42.0412 23.1683 42.6162 22.4216 43.7664 22.4216C44.3 22.4216 44.712 22.6233 45.0025 23.0268C45.2989 23.4242 45.4471 23.9813 45.4471 24.6979V30.1177C45.4471 30.8162 45.3019 31.3492 45.0114 31.7165C44.7209 32.0839 44.3059 32.2675 43.7664 32.2675Z" fill="#E2E5F7"/>
</svg>
