<svg width="252" height="30" fill="none" xmlns="http://www.w3.org/2000/svg"><g clip-path="url(#a)" fill="#fff"><path d="M0 3.377v20.938h3.973V6.567h7.018v-3.19H0ZM13.65 10.163v7.598c0 5.278 2.843 7.047 6.816 7.047 4.03 0 6.728-1.711 6.728-7.047v-7.598C27.194 4.827 24.497 3 20.466 3c-3.973 0-6.815 1.885-6.815 7.163Zm6.816-3.973c1.71 0 2.668 1.334 2.668 3.567v8.497c0 2.204-.957 3.364-2.668 3.364-1.885 0-2.755-1.189-2.755-3.364V9.699c0-2.233.87-3.509 2.755-3.509ZM43.322 10.192V9.148C43.322 5.291 41.118 3 37.058 3c-4.32 0-6.525 2.291-6.525 7.192v7.627c0 3.712 1.247 6.989 6.467 6.989 4.96 0 6.322-3.248 6.322-7.047v-.899H39.35v1.131c0 2.697-.783 3.625-2.378 3.625-1.682 0-2.378-.899-2.378-3.625V9.728c0-2.639.725-3.538 2.407-3.538s2.35.899 2.35 3.538v.464h3.972ZM49.406 3.377v6.525c0 5.771-.523 8.149-1.914 11.223h-1.247v7.395h3.828v-4.205h8.67v4.205h3.828v-7.395h-1.276V3.377h-11.89Zm7.916 3.19v14.558h-5.887c1.218-2.61 1.886-4.988 1.886-9.802V6.567h4.002ZM64.415 3.377l5.742 16.559c-.406 1.189-.986 1.682-1.77 1.682-.521 0-.87-.174-1.101-.232v3.045a7.487 7.487 0 0 0 2.407.377c1.943 0 3.19-1.189 4.292-4.495l5.684-16.936h-4.35l-3.22 11.107-3.218-11.107h-4.466ZM82.09 3.377v20.938h3.713V5.378h.029l3.973 18.937h2.842L96.62 5.349h.029v18.966h3.712V3.377H94.01l-2.784 13.601-2.784-13.601H82.09ZM104.014 3.377v20.938h11.194v-3.19h-7.221v-6.496h6.583v-3.19h-6.583V6.567h7.221v-3.19h-11.194ZM132.027 14.89c1.363 0 2.03.957 2.03 2.755v1.131c0 1.914-.725 2.929-2.03 2.929-1.305 0-2.03-.986-2.03-2.9v-1.102c0-1.798.667-2.813 2.03-2.813Zm0-8.41c1.305 0 1.798.812 1.798 2.784 0 1.769-.551 2.697-1.798 2.697-1.218 0-1.798-.928-1.798-2.697 0-2.001.551-2.784 1.798-2.784Zm-2.929 6.786c-1.537.899-2.813 2.349-2.813 5.162 0 4.495 1.798 6.38 5.713 6.38 4.002 0 5.771-1.885 5.771-6.38 0-2.784-.841-4.321-2.697-5.162 1.305-.696 2.32-2.001 2.32-4.785 0-3.538-2.32-5.104-5.365-5.104-3.045 0-5.365 1.566-5.365 5.104 0 2.784 1.16 4.089 2.436 4.785ZM161.9 10.192V9.148c0-3.857-2.204-6.148-6.264-6.148-4.321 0-6.525 2.291-6.525 7.192v7.627c0 3.712 1.247 6.989 6.467 6.989 4.959 0 6.322-3.248 6.322-7.047v-.899h-3.973v1.131c0 2.697-.783 3.625-2.378 3.625-1.682 0-2.378-.899-2.378-3.625V9.728c0-2.639.725-3.538 2.407-3.538s2.349.899 2.349 3.538v.464h3.973ZM165.258 10.163v7.598c0 5.278 2.842 7.047 6.815 7.047 4.031 0 6.728-1.711 6.728-7.047v-7.598c0-5.336-2.697-7.163-6.728-7.163-3.973 0-6.815 1.885-6.815 7.163Zm6.815-3.973c1.711 0 2.668 1.334 2.668 3.567v8.497c0 2.204-.957 3.364-2.668 3.364-1.885 0-2.755-1.189-2.755-3.364V9.699c0-2.233.87-3.509 2.755-3.509ZM185.852 9.409c0-1.885.812-3.219 2.378-3.219 1.682 0 2.204 1.537 2.204 2.929 0 1.856-1.131 2.668-2.61 2.668h-.841v2.987h.841c1.653 0 2.9.899 2.9 3.364 0 2.175-.696 3.48-2.61 3.48-2.001 0-2.581-1.421-2.581-2.871h-3.857c0 4.495 3.248 6.061 6.67 6.061 4.147 0 6.438-2.088 6.438-6.293 0-3.161-1.421-4.872-3.509-5.394 1.914-.493 3.219-2.378 3.219-4.553 0-4.234-3.451-5.568-6.264-5.568-3.944 0-6.235 2.755-6.235 6.409h3.857ZM202.263 14.629h2.291c1.479 0 2.32 1.392 2.32 3.451 0 2.349-.841 3.248-2.32 3.248h-2.291v-6.699Zm0-11.252h-3.973v20.938h7.656c3.161 0 4.988-2.668 4.988-6.699 0-2.958-2.088-6.177-5.336-6.177h-3.335V3.377Zm15.66 0h-3.973v20.938h3.973V3.377ZM225.546 6.364h2.146c1.798 0 2.407.899 2.407 2.668 0 1.798-.725 2.842-2.465 2.842h-2.088v-5.51Zm0 8.497h2.552c1.479 0 2.204 1.16 2.204 3.219 0 2.349-.725 3.248-2.204 3.248h-2.552v-6.467Zm-3.973 9.454h8.004c3.219 0 4.785-2.581 4.785-6.206 0-2.726-1.044-4.205-3.103-5.046 1.74-.348 2.813-2.581 2.813-4.582 0-2.668-1.479-5.104-5.162-5.104h-7.337v20.938ZM236.301 24.315h4.263l1.247-5.452h4.495l.986 5.452h4.292l-4.64-20.938h-5.336l-5.307 20.938Zm6.003-8.555 1.914-9.744 1.595 9.744h-3.509Z"/></g><defs><clipPath id="a"><path fill="#fff" transform="translate(0 1)" d="M0 0h251.584v28H0z"/></clipPath></defs></svg>