<svg width="111" height="32" viewBox="0 0 111 32" fill="none" xmlns="http://www.w3.org/2000/svg">
<path d="M4.27541 9.8479H5.96726C7.38477 9.8479 7.86489 10.5566 7.86489 11.9513C7.86489 13.3688 7.29331 14.1919 5.92154 14.1919H4.27541V9.8479ZM4.27541 16.5467H6.28735C7.45335 16.5467 8.02493 17.4613 8.02493 19.0845C8.02493 20.9364 7.45335 21.6452 6.28735 21.6452H4.27541V16.5467ZM1.14319 24H7.45335C9.99114 24 11.2257 21.9652 11.2257 19.1074C11.2257 16.9583 10.4027 15.7923 8.7794 15.1292C10.1512 14.8549 10.9971 13.0944 10.9971 11.5169C10.9971 9.4135 9.8311 7.49302 6.92751 7.49302H1.14319V24Z" fill="white"/>
<path d="M19.6068 7.49302V24H22.739V10.0079H28.2718V7.49302H19.6068Z" fill="white"/>
<path d="M30.2425 12.8429V18.833C30.2425 22.9941 32.4831 24.3887 35.6153 24.3887C38.7932 24.3887 40.9195 23.0398 40.9195 18.833V12.8429C40.9195 8.63616 38.7932 7.1958 35.6153 7.1958C32.4831 7.1958 30.2425 8.68189 30.2425 12.8429ZM35.6153 9.71072C36.9642 9.71072 37.7187 10.7624 37.7187 12.5229V19.2217C37.7187 20.9593 36.9642 21.8738 35.6153 21.8738C34.1292 21.8738 33.4433 20.9364 33.4433 19.2217V12.4771C33.4433 10.7167 34.1292 9.71072 35.6153 9.71072Z" fill="white"/>
<path d="M53.5087 12.8658V12.0427C53.5087 9.00197 51.7712 7.1958 48.5704 7.1958C45.1638 7.1958 43.4262 9.00197 43.4262 12.8658V18.8788C43.4262 21.8052 44.4093 24.3887 48.5246 24.3887C52.4342 24.3887 53.5087 21.8281 53.5087 18.833V18.1243H50.3765V19.0159C50.3765 21.1422 49.7592 21.8738 48.5018 21.8738C47.1757 21.8738 46.627 21.165 46.627 19.0159V12.5C46.627 10.4195 47.1986 9.71072 48.5246 9.71072C49.8507 9.71072 50.3765 10.4195 50.3765 12.5V12.8658H53.5087Z" fill="white"/>
<path d="M58.1785 7.49302V12.6372C58.1785 17.1869 57.767 19.0617 56.6695 21.4851H55.6864V27.3152H58.7043V24H65.5404V27.3152H68.5583V21.4851H67.5523V7.49302H58.1785ZM64.4201 10.0079V21.4851H59.7789C60.7391 19.4275 61.265 17.5527 61.265 13.7575V10.0079H64.4201Z" fill="white"/>
<path d="M69.8854 7.49302L74.4122 20.5477C74.0922 21.4851 73.6349 21.8738 73.0176 21.8738C72.6061 21.8738 72.3317 21.7366 72.1488 21.6909V24.0915C72.6975 24.2744 73.3148 24.3887 74.0464 24.3887C75.5782 24.3887 76.5614 23.4513 77.4301 20.845L81.9113 7.49302H78.4818L75.9441 16.2495L73.4063 7.49302H69.8854Z" fill="white"/>
<path d="M83.6944 7.49302V24H86.6209V9.07056H86.6437L89.7759 24H92.0165L95.1487 9.0477H95.1716V24H98.098V7.49302H93.0911L90.8962 18.2157L88.7014 7.49302H83.6944Z" fill="white"/>
<path d="M100.852 7.49302V24H109.677V21.4851H103.985V16.3638H109.174V13.8489H103.985V10.0079H109.677V7.49302H100.852Z" fill="white"/>
</svg>
