<svg width="218" height="32" viewBox="0 0 218 32" fill="none" xmlns="http://www.w3.org/2000/svg">
<path d="M4.27541 9.8479H5.96726C7.38477 9.8479 7.86489 10.5566 7.86489 11.9513C7.86489 13.3688 7.29331 14.1919 5.92154 14.1919H4.27541V9.8479ZM4.27541 16.5467H6.28735C7.45335 16.5467 8.02493 17.4613 8.02493 19.0845C8.02493 20.9364 7.45335 21.6452 6.28735 21.6452H4.27541V16.5467ZM1.14319 24H7.45335C9.99114 24 11.2257 21.9652 11.2257 19.1074C11.2257 16.9583 10.4027 15.7923 8.7794 15.1292C10.1512 14.8549 10.9971 13.0944 10.9971 11.5169C10.9971 9.4135 9.8311 7.49302 6.92751 7.49302H1.14319V24Z" fill="white"/>
<path d="M29.575 12.8658V12.0427C29.575 9.00197 27.8374 7.1958 24.6366 7.1958C21.23 7.1958 19.4925 9.00197 19.4925 12.8658V18.8788C19.4925 21.8052 20.4756 24.3887 24.5909 24.3887C28.5005 24.3887 29.575 21.8281 29.575 18.833V18.1243H26.4428V19.0159C26.4428 21.1422 25.8255 21.8738 24.568 21.8738C23.242 21.8738 22.6933 21.165 22.6933 19.0159V12.5C22.6933 10.4195 23.2648 9.71072 24.5909 9.71072C25.9169 9.71072 26.4428 10.4195 26.4428 12.5V12.8658H29.575Z" fill="white"/>
<path d="M32.0956 12.8429V18.833C32.0956 22.9941 34.3362 24.3887 37.4684 24.3887C40.6464 24.3887 42.7726 23.0398 42.7726 18.833V12.8429C42.7726 8.63616 40.6464 7.1958 37.4684 7.1958C34.3362 7.1958 32.0956 8.68189 32.0956 12.8429ZM37.4684 9.71072C38.8173 9.71072 39.5718 10.7624 39.5718 12.5229V19.2217C39.5718 20.9593 38.8173 21.8738 37.4684 21.8738C35.9823 21.8738 35.2965 20.9364 35.2965 19.2217V12.4771C35.2965 10.7167 35.9823 9.71072 37.4684 9.71072Z" fill="white"/>
<path d="M48.5259 9.8479H50.2177C51.6352 9.8479 52.1154 10.5566 52.1154 11.9513C52.1154 13.3688 51.5438 14.1919 50.172 14.1919H48.5259V9.8479ZM48.5259 16.5467H50.5378C51.7038 16.5467 52.2754 17.4613 52.2754 19.0845C52.2754 20.9364 51.7038 21.6452 50.5378 21.6452H48.5259V16.5467ZM45.3937 24H51.7038C54.2416 24 55.4762 21.9652 55.4762 19.1074C55.4762 16.9583 54.6531 15.7923 53.0299 15.1292C54.4016 14.8549 55.2476 13.0944 55.2476 11.5169C55.2476 9.4135 54.0816 7.49302 51.178 7.49302H45.3937V24Z" fill="white"/>
<path d="M57.9075 7.49302V24H66.7326V21.4851H61.0397V16.3638H66.2296V13.8489H61.0397V10.0079H66.7326V7.49302H57.9075Z" fill="white"/>
<path d="M75.4361 10.0079H79.3228V7.49302H68.4172V10.0079H72.3038V24H75.4361V10.0079Z" fill="white"/>
<path d="M81.3277 7.49302V24H90.1528V21.4851H84.46V16.3638H89.6498V13.8489H84.46V10.0079H90.1528V7.49302H81.3277Z" fill="white"/>
<path d="M104.394 7.49302V9.36778H103.48C100.805 9.36778 98.0843 11.3569 98.0843 15.7008C98.0843 20.1591 100.782 21.9652 103.48 21.9652H104.394V24H107.527V21.9652H108.441C111.139 21.9652 113.837 20.1591 113.837 15.7008C113.837 11.3569 111.116 9.36778 108.441 9.36778H107.527V7.49302H104.394ZM104.394 19.5189H103.663C102.131 19.5189 101.285 18.1471 101.285 15.7008C101.285 13.3917 102.177 11.8141 103.663 11.8141H104.394V19.5189ZM107.527 11.8141H108.258C109.744 11.8141 110.636 13.3917 110.636 15.7008C110.636 18.1471 109.79 19.5189 108.258 19.5189H107.527V11.8141Z" fill="white"/>
<path d="M116.235 7.49302V24H125.06V21.4851H119.367V16.3638H124.557V13.8489H119.367V10.0079H125.06V7.49302H116.235Z" fill="white"/>
<path d="M129.511 7.49302V12.6372C129.511 17.1869 129.099 19.0617 128.002 21.4851H127.019V27.3152H130.037V24H136.873V27.3152H139.891V21.4851H138.885V7.49302H129.511ZM135.752 10.0079V21.4851H131.111C132.071 19.4275 132.597 17.5527 132.597 13.7575V10.0079H135.752Z" fill="white"/>
<path d="M142.178 7.49302V24H151.003V21.4851H145.31V16.3638H150.5V13.8489H145.31V10.0079H151.003V7.49302H142.178Z" fill="white"/>
<path d="M156.551 17.2783H159.295C161.97 17.2783 163.685 15.0378 163.685 12.3171C163.685 9.665 162.016 7.49302 159.341 7.49302H153.419V24H156.551V17.2783ZM156.551 9.93935H158.129C159.706 9.93935 160.484 10.8081 160.484 12.3628C160.484 13.9404 159.706 14.832 158.129 14.832H156.551V9.93935Z" fill="white"/>
<path d="M164.257 24H167.618L168.601 19.7018H172.144L172.922 24H176.305L172.647 7.49302H168.441L164.257 24ZM168.989 17.2555L170.498 9.57354L171.756 17.2555H168.989Z" fill="white"/>
<path d="M181.2 7.49302H178.067V24H186.549V27.338H189.476V21.4851H188.47V7.49302H185.338V21.4851H181.2V7.49302Z" fill="white"/>
<path d="M191.72 7.49302V24H195.104L199.676 12.0199H199.699C199.379 13.506 199.31 15.2435 199.31 17.7585V24H202.237V7.49302H198.853L194.281 19.496H194.258C194.555 18.1243 194.646 15.6322 194.646 13.666V7.49302H191.72Z" fill="white"/>
<path d="M204.971 7.49302V24H208.354L212.927 12.0199H212.95C212.63 13.506 212.561 15.2435 212.561 17.7585V24H215.488V7.49302H212.104L207.531 19.496H207.508C207.806 18.1243 207.897 15.6322 207.897 13.666V7.49302H204.971Z" fill="white"/>
</svg>
