<svg width="252" height="30" fill="none" xmlns="http://www.w3.org/2000/svg"><g clip-path="url(#a)" fill="#fff"><path d="M12.789 10.192V9.148C12.789 5.291 10.585 3 6.525 3 2.204 3 0 5.291 0 10.192v7.627c0 3.712 1.247 6.989 6.467 6.989 4.959 0 6.322-3.248 6.322-7.047v-.899H8.816v1.131c0 2.697-.783 3.625-2.378 3.625-1.682 0-2.378-.899-2.378-3.625V9.728c0-2.639.725-3.538 2.407-3.538s2.349.899 2.349 3.538v.464h3.973ZM16.146 10.163v7.598c0 5.278 2.842 7.047 6.815 7.047 4.031 0 6.728-1.711 6.728-7.047v-7.598C29.69 4.827 26.992 3 22.961 3c-3.973 0-6.815 1.885-6.815 7.163Zm6.815-3.973c1.711 0 2.668 1.334 2.668 3.567v8.497c0 2.204-.957 3.364-2.668 3.364-1.885 0-2.755-1.189-2.755-3.364V9.699c0-2.233.87-3.509 2.755-3.509ZM37.147 6.364h2.146c1.798 0 2.407.899 2.407 2.668 0 1.798-.725 2.842-2.465 2.842h-2.088v-5.51Zm0 8.497h2.552c1.479 0 2.204 1.16 2.204 3.219 0 2.349-.725 3.248-2.204 3.248h-2.552v-6.467Zm-3.973 9.454h8.004c3.219 0 4.785-2.581 4.785-6.206 0-2.726-1.044-4.205-3.103-5.046 1.74-.348 2.813-2.581 2.813-4.582 0-2.668-1.48-5.104-5.162-5.104h-7.337v20.938ZM49.207 3.377v20.938H60.4v-3.19H53.18v-6.496h6.583v-3.19H53.18V6.567h7.22v-3.19H49.208ZM71.6 6.567h4.93v-3.19H62.698v3.19h4.93v17.748h3.974V6.567ZM79.234 3.377v20.938h11.194v-3.19h-7.221v-6.496h6.583v-3.19h-6.583V6.567h7.22v-3.19H79.235ZM108.812 3.377v2.378h-1.16c-3.393 0-6.844 2.523-6.844 8.033 0 5.655 3.422 7.946 6.844 7.946h1.16v2.581h3.973v-2.581h1.16c3.422 0 6.844-2.291 6.844-7.946 0-5.51-3.451-8.033-6.844-8.033h-1.16V3.377h-3.973Zm0 15.254h-.928c-1.943 0-3.016-1.74-3.016-4.843 0-2.929 1.131-4.93 3.016-4.93h.928v9.773Zm3.973-9.773h.928c1.885 0 3.016 2.001 3.016 4.93 0 3.103-1.073 4.843-3.016 4.843h-.928V8.858ZM123.991 3.377v20.938h11.194v-3.19h-7.221v-6.496h6.583v-3.19h-6.583V6.567h7.221v-3.19h-11.194ZM140.991 3.377v6.525c0 5.771-.522 8.149-1.914 11.223h-1.248v7.395h3.829v-4.205h8.671v4.205h3.828v-7.395h-1.276V3.377h-11.89Zm7.917 3.19v14.558h-5.887c1.218-2.61 1.885-4.988 1.885-9.802V6.567h4.002ZM157.218 3.377v20.938h11.194v-3.19h-7.221v-6.496h6.583v-3.19h-6.583V6.567h7.221v-3.19h-11.194ZM175.61 15.789h3.48c3.393 0 5.568-2.842 5.568-6.293 0-3.364-2.117-6.119-5.51-6.119h-7.511v20.938h3.973v-8.526Zm0-9.309h2.001c2.001 0 2.987 1.102 2.987 3.074 0 2.001-.986 3.132-2.987 3.132h-2.001V6.48ZM185.543 24.315h4.263l1.247-5.452h4.495l.986 5.452h4.292l-4.64-20.938h-5.336l-5.307 20.938Zm6.003-8.555 1.914-9.744 1.595 9.744h-3.509ZM207.194 3.377h-3.973v20.938h10.759v4.234h3.712v-7.424h-1.276V3.377h-3.973v17.748h-5.249V3.377ZM220.698 3.377v20.938h4.292l5.8-15.196h.029c-.406 1.885-.493 4.089-.493 7.279v7.917h3.712V3.377h-4.292l-5.8 15.225h-.029c.377-1.74.493-4.901.493-7.395v-7.83h-3.712ZM237.666 3.377v20.938h4.292l5.8-15.196h.029c-.406 1.885-.493 4.089-.493 7.279v7.917h3.712V3.377h-4.292l-5.8 15.225h-.029c.377-1.74.493-4.901.493-7.395v-7.83h-3.712Z"/></g><defs><clipPath id="a"><path fill="#fff" transform="translate(0 1)" d="M0 0h251.006v28H0z"/></clipPath></defs></svg>