<svg xmlns="http://www.w3.org/2000/svg" width="182" height="41" viewBox="0 0 182 41" fill="none">
    <g opacity="0.3">
        <path d="M20.5263 25.456V34H21.7423V26.48H25.0383V25.456H20.5263ZM29.2176 26.256C30.7696 26.256 30.8976 28.464 30.8976 29.584C30.8976 31.888 30.4976 33.2 29.2336 33.2C27.6976 33.2 27.6016 31.344 27.6016 29.712C27.6016 28.224 27.7296 26.256 29.2176 26.256ZM27.6016 25.456H26.3856V36.976H27.6016V33.12C28.0656 33.808 28.5776 34.224 29.4416 34.224C31.5856 34.224 32.1616 32.176 32.1616 29.584C32.1616 27.2 31.5216 25.232 29.3616 25.232C28.7696 25.232 28.0016 25.616 27.6176 26.416H27.6016V25.456ZM37.5768 29.344V31.408C37.5768 32.288 37.2728 33.136 36.0088 33.136C35.1928 33.136 34.8728 32.576 34.8728 31.824C34.8728 30.176 36.3128 30.08 37.5768 29.344ZM35.0328 27.76C35.0328 26.768 35.3688 26.256 36.2808 26.256C37.2568 26.256 37.5768 26.608 37.5768 27.584C37.5768 28.016 37.5608 28.448 37.2568 28.592C37.1288 28.656 36.2968 29.024 35.7368 29.232C34.2488 29.808 33.6088 30.352 33.6088 31.872C33.6088 33.424 34.3128 34.224 35.8008 34.224C36.6168 34.224 37.4008 33.6 37.6888 32.848H37.7208C37.9128 34 38.2968 34.096 39.0328 34.096C39.2408 34.096 39.4488 34.048 39.5288 34V33.104C39.4648 33.12 39.3368 33.136 39.2568 33.136C38.9368 33.136 38.7928 32.848 38.7928 32.448V27.408C38.7928 26.256 38.1208 25.232 36.4088 25.232C34.8088 25.232 33.9448 26 33.9448 27.76H35.0328ZM42.2423 25.456H41.0263V34H42.2423V30.016H45.2663V34H46.4823V25.456H45.2663V28.992H42.2423V25.456ZM48.7294 25.456V34H50.2014L53.0334 27.52C53.0974 27.392 53.2414 26.752 53.2894 26.464H53.3054C53.2574 26.736 53.1774 27.28 53.1774 27.52V34H54.3934V25.456H52.9214L50.0894 31.952C50.0094 32.144 49.9134 32.576 49.8334 32.976H49.8174C49.8814 32.672 49.9454 32.256 49.9454 31.952V25.456H48.7294ZM56.3156 25.456V27.984C56.3156 29.152 56.9396 30.176 58.4436 30.176C59.2916 30.176 59.7396 30.144 60.2996 30.016V34H61.5156V25.456H60.2996V29.072C60.0116 29.104 59.7076 29.152 58.8596 29.152C57.7876 29.152 57.5316 28.736 57.5316 27.872V25.456H56.3156ZM64.7046 28.992C64.7046 27.856 64.8486 26.256 66.1926 26.256C67.4086 26.256 67.5846 27.696 67.5846 28.992H64.7046ZM67.6326 31.152C67.6326 32.128 67.4086 33.2 66.2406 33.2C64.8166 33.2 64.7046 31.968 64.7046 30.016H68.8486C68.8486 27.76 68.5926 25.232 66.1766 25.232C63.9206 25.232 63.4406 27.568 63.4406 29.712C63.4406 33.152 64.4806 34.224 66.2726 34.224C68.0646 34.224 68.8486 32.832 68.8486 31.152H67.6326ZM71.9923 25.456H70.7763V34H71.9923V30.016H75.0163V34H76.2323V25.456H75.0163V28.992H71.9923V25.456ZM79.6954 25.456H78.4794V34H79.6954V30.016H82.7194V34H83.9354V25.456H82.7194V28.992H79.6954V25.456ZM87.3985 30.016H88.7585C89.8145 30.016 90.2145 30.592 90.2145 31.52C90.2145 32.48 89.8305 32.976 88.6785 32.976H87.3985V30.016ZM87.3985 25.456H86.1825V34H89.1105C90.4865 34 91.4785 33.04 91.4785 31.568C91.4785 30.096 90.5185 28.992 89.1105 28.992H87.3985V25.456ZM94.0865 25.456H92.8705V34H94.0865V25.456ZM97.2671 28.992C97.2671 27.856 97.4111 26.256 98.7551 26.256C99.9711 26.256 100.147 27.696 100.147 28.992H97.2671ZM100.195 31.152C100.195 32.128 99.9711 33.2 98.8031 33.2C97.3791 33.2 97.2671 31.968 97.2671 30.016H101.411C101.411 27.76 101.155 25.232 98.7391 25.232C96.4831 25.232 96.0031 27.568 96.0031 29.712C96.0031 33.152 97.0431 34.224 98.8351 34.224C100.627 34.224 101.411 32.832 101.411 31.152H100.195ZM103.451 32.464V34H104.203C104.203 34.576 104.091 35.376 103.451 35.552V36.24C104.347 35.984 104.843 35.136 104.843 34.272V32.464H103.451ZM112.242 25.456H111.026V34H120.242V25.456H119.026V32.976H116.242V25.456H115.026V32.976H112.242V25.456ZM122.479 25.456V34H123.951L126.783 27.52C126.847 27.392 126.991 26.752 127.039 26.464H127.055C127.007 26.736 126.927 27.28 126.927 27.52V34H128.143V25.456H126.671L123.839 31.952C123.759 32.144 123.663 32.576 123.583 32.976H123.567C123.631 32.672 123.695 32.256 123.695 31.952V25.456H122.479ZM133.218 26.256C134.77 26.256 134.898 28.464 134.898 29.584C134.898 31.888 134.498 33.2 133.234 33.2C131.698 33.2 131.602 31.344 131.602 29.712C131.602 28.224 131.73 26.256 133.218 26.256ZM131.602 25.456H130.386V36.976H131.602V33.12C132.066 33.808 132.578 34.224 133.442 34.224C135.586 34.224 136.162 32.176 136.162 29.584C136.162 27.2 135.522 25.232 133.362 25.232C132.77 25.232 132.002 25.616 131.618 26.416H131.602V25.456ZM162.367 25.456H161.151V34H162.367V30.96L163.295 29.744L165.423 34H166.847L164.127 28.784L166.767 25.456H165.327L162.367 29.44V25.456ZM168.198 25.456V34H169.67L172.502 27.52C172.566 27.392 172.71 26.752 172.758 26.464H172.774C172.726 26.736 172.646 27.28 172.646 27.52V34H173.862V25.456H172.39L169.558 31.952C169.478 32.144 169.382 32.576 169.302 32.976H169.286C169.35 32.672 169.414 32.256 169.414 31.952V25.456H168.198ZM177.048 28.992C177.048 27.856 177.192 26.256 178.536 26.256C179.752 26.256 179.928 27.696 179.928 28.992H177.048ZM179.976 31.152C179.976 32.128 179.752 33.2 178.584 33.2C177.16 33.2 177.048 31.968 177.048 30.016H181.192C181.192 27.76 180.936 25.232 178.52 25.232C176.264 25.232 175.784 27.568 175.784 29.712C175.784 33.152 176.824 34.224 178.616 34.224C180.408 34.224 181.192 32.832 181.192 31.152H179.976Z" fill="black"/>
        <path d="M8.016 4.48V9.504C8.016 13.2 7.92 14.992 6.736 14.992C6.592 14.992 6.416 14.976 6.24 14.912V16.048C6.496 16.112 6.768 16.144 7.008 16.144C9.248 16.144 9.296 12.768 9.296 10.192V5.632H13.168V16H14.448V4.48H8.016ZM19.4966 7.232C17.3846 7.232 16.4406 8.848 16.4406 11.696C16.4406 15.2 17.6566 16.224 19.4966 16.224C21.3686 16.224 22.5526 15.2 22.5526 11.712C22.5526 8.848 21.6086 7.232 19.4966 7.232ZM19.4966 8.256C20.7766 8.256 21.2886 9.232 21.2886 11.824C21.2886 13.84 20.9366 15.2 19.4966 15.2C18.0886 15.2 17.7046 13.84 17.7046 11.824C17.7046 9.232 18.2006 8.256 19.4966 8.256ZM25.3434 8.992C25.4714 7.52 26.2234 6.592 27.4074 6.32C28.7354 6.032 29.5834 5.616 29.8394 4.48H28.8474C28.7354 4.96 27.9354 5.168 26.9274 5.424C25.1674 5.872 24.1594 7.408 24.1594 11.12C24.1594 14.512 24.9434 16.224 27.2154 16.224C29.3274 16.224 30.2714 14.736 30.2714 11.728C30.2714 9.168 29.1674 7.664 27.3914 7.664C26.5434 7.664 25.8234 8.128 25.3434 8.992ZM27.2154 15.2C25.9354 15.2 25.4234 14 25.4234 11.728C25.4234 9.936 26.0154 8.688 27.2154 8.688C28.4474 8.688 29.0074 10.016 29.0074 11.728C29.0074 14 28.4954 15.2 27.2154 15.2ZM33.0621 8.992C33.1901 7.52 33.9421 6.592 35.1261 6.32C36.4541 6.032 37.3021 5.616 37.5581 4.48H36.5661C36.4541 4.96 35.6541 5.168 34.6461 5.424C32.8861 5.872 31.8781 7.408 31.8781 11.12C31.8781 14.512 32.6621 16.224 34.9341 16.224C37.0461 16.224 37.9901 14.736 37.9901 11.728C37.9901 9.168 36.8861 7.664 35.1101 7.664C34.2621 7.664 33.5421 8.128 33.0621 8.992ZM34.9341 15.2C33.6541 15.2 33.1421 14 33.1421 11.728C33.1421 9.936 33.7341 8.688 34.9341 8.688C36.1661 8.688 36.7261 10.016 36.7261 11.728C36.7261 14 36.2141 15.2 34.9341 15.2ZM39.9169 7.456V16H41.3889L44.2209 9.52C44.2849 9.392 44.4289 8.752 44.4769 8.464H44.4929C44.4449 8.736 44.3649 9.28 44.3649 9.52V16H45.5809V7.456H44.1089L41.2769 13.952C41.1969 14.144 41.1009 14.576 41.0209 14.976H41.0049C41.0689 14.672 41.1329 14.256 41.1329 13.952V7.456H39.9169ZM50.4471 8.256C51.5991 8.256 51.9031 9.2 51.9031 10.128H53.0551C53.0551 8.544 52.1751 7.232 50.4631 7.232C48.0151 7.232 47.5031 9.584 47.5031 11.84C47.5031 14.048 47.8711 16.224 50.4791 16.224C52.3831 16.224 53.0551 14.64 53.0551 13.024H51.9031C51.8391 14.064 51.7111 15.2 50.3991 15.2C48.8471 15.2 48.7671 13.232 48.7671 11.84C48.7671 10.064 48.9911 8.256 50.4471 8.256ZM57.3206 16V8.48H59.5446V7.456H53.8646V8.48H56.1046V16H57.3206ZM63.5096 8.256C64.6616 8.256 64.9656 9.2 64.9656 10.128H66.1176C66.1176 8.544 65.2376 7.232 63.5256 7.232C61.0776 7.232 60.5656 9.584 60.5656 11.84C60.5656 14.048 60.9336 16.224 63.5416 16.224C65.4456 16.224 66.1176 14.64 66.1176 13.024H64.9656C64.9016 14.064 64.7736 15.2 63.4616 15.2C61.9096 15.2 61.8296 13.232 61.8296 11.84C61.8296 10.064 62.0536 8.256 63.5096 8.256ZM69.0391 7.456H67.8231V16H69.0391V12.96L69.9671 11.744L72.0951 16H73.5191L70.7991 10.784L73.4391 7.456H71.9991L69.0391 11.44V7.456ZM74.87 7.456V16H76.342L79.174 9.52C79.238 9.392 79.382 8.752 79.43 8.464H79.446C79.398 8.736 79.318 9.28 79.318 9.52V16H80.534V7.456H79.062L76.23 13.952C76.15 14.144 76.054 14.576 75.974 14.976H75.958C76.022 14.672 76.086 14.256 76.086 13.952V7.456H74.87ZM83.7203 10.992C83.7203 9.856 83.8643 8.256 85.2083 8.256C86.4243 8.256 86.6003 9.696 86.6003 10.992H83.7203ZM86.6483 13.152C86.6483 14.128 86.4243 15.2 85.2563 15.2C83.8323 15.2 83.7203 13.968 83.7203 12.016H87.8643C87.8643 9.76 87.6083 7.232 85.1923 7.232C82.9363 7.232 82.4563 9.568 82.4563 11.712C82.4563 15.152 83.4963 16.224 85.2883 16.224C87.0803 16.224 87.8643 14.832 87.8643 13.152H86.6483ZM94.8516 8.48H96.1796C97.0596 8.48 97.4756 8.864 97.4756 9.696C97.4756 10.624 97.0596 10.992 96.1316 10.992H94.8516V8.48ZM94.8516 12.016H96.2596C97.1716 12.016 97.6836 12.496 97.6836 13.488C97.6836 14.496 97.3956 14.976 96.2756 14.976H94.8516V12.016ZM93.6356 16H96.8036C97.9236 16 98.9156 15.152 98.9156 13.68C98.9156 12.496 98.3236 11.776 97.3796 11.552V11.52C98.1476 11.312 98.7076 10.592 98.7076 9.488C98.7076 8.24 97.6836 7.456 96.4036 7.456H93.6356V16ZM103.575 7.232C101.463 7.232 100.519 8.848 100.519 11.696C100.519 15.2 101.735 16.224 103.575 16.224C105.447 16.224 106.631 15.2 106.631 11.712C106.631 8.848 105.687 7.232 103.575 7.232ZM103.575 8.256C104.855 8.256 105.367 9.232 105.367 11.824C105.367 13.84 105.015 15.2 103.575 15.2C102.167 15.2 101.783 13.84 101.783 11.824C101.783 9.232 102.279 8.256 103.575 8.256ZM109.166 9.744C109.214 8.912 109.646 8.256 110.622 8.256C111.598 8.256 111.982 8.912 111.982 9.584C111.982 10.464 111.422 10.992 110.734 10.992H110.078V12.016H110.75C111.661 12.016 112.174 12.704 112.174 13.616C112.174 14.784 111.549 15.2 110.622 15.2C109.646 15.2 109.166 14.768 109.038 13.312H107.918C108.062 15.312 108.926 16.224 110.702 16.224C112.366 16.224 113.406 15.2 113.406 13.696C113.406 12.304 112.462 11.664 111.661 11.504V11.472C112.542 11.232 113.182 10.528 113.182 9.376C113.182 8.16 112.094 7.232 110.654 7.232C109.102 7.232 108.11 8.4 108.046 9.744H109.166ZM115.323 7.456V16H116.491V8.48H116.507L118.651 16H119.467L121.627 8.48H121.643V16H122.811V7.456H120.923L119.371 13.088C119.243 13.552 119.179 14.24 119.083 14.816H119.067C118.971 14.24 118.875 13.488 118.763 13.088L117.211 7.456H115.323ZM127.794 7.232C125.682 7.232 124.738 8.848 124.738 11.696C124.738 15.2 125.954 16.224 127.794 16.224C129.666 16.224 130.85 15.2 130.85 11.712C130.85 8.848 129.906 7.232 127.794 7.232ZM127.794 8.256C129.074 8.256 129.586 9.232 129.586 11.824C129.586 13.84 129.234 15.2 127.794 15.2C126.386 15.2 126.002 13.84 126.002 11.824C126.002 9.232 126.498 8.256 127.794 8.256ZM136.296 7.456V11.44L133.336 7.456H131.896L134.536 10.784L131.816 16H133.24L135.368 11.744L136.296 12.96V16H137.512V12.96L138.44 11.744L140.568 16H141.992L139.272 10.784L141.912 7.456H140.472L137.512 11.44V7.456H136.296ZM144.492 7.456H143.276V16H144.492V12.016H147.516V16H148.732V7.456H147.516V10.992H144.492V7.456ZM153.715 7.232C151.603 7.232 150.659 8.848 150.659 11.696C150.659 15.2 151.875 16.224 153.715 16.224C155.587 16.224 156.771 15.2 156.771 11.712C156.771 8.848 155.827 7.232 153.715 7.232ZM153.715 8.256C154.995 8.256 155.507 9.232 155.507 11.824C155.507 13.84 155.155 15.2 153.715 15.2C152.307 15.2 151.923 13.84 151.923 11.824C151.923 9.232 152.419 8.256 153.715 8.256ZM161.322 8.256C162.474 8.256 162.778 9.2 162.778 10.128H163.93C163.93 8.544 163.05 7.232 161.338 7.232C158.89 7.232 158.378 9.584 158.378 11.84C158.378 14.048 158.746 16.224 161.354 16.224C163.258 16.224 163.93 14.64 163.93 13.024H162.778C162.714 14.064 162.586 15.2 161.274 15.2C159.722 15.2 159.642 13.232 159.642 11.84C159.642 10.064 159.866 8.256 161.322 8.256ZM168.196 16V8.48H170.42V7.456H164.74V8.48H166.98V16H168.196ZM171.761 7.456V16H173.233L176.065 9.52C176.129 9.392 176.273 8.752 176.321 8.464H176.337C176.289 8.736 176.209 9.28 176.209 9.52V16H177.425V7.456H175.953L173.121 13.952C173.041 14.144 172.945 14.576 172.865 14.976H172.849C172.913 14.672 172.977 14.256 172.977 13.952V7.456H171.761Z" fill="black"/>
    </g>
    <circle cx="12.5" cy="29.5" r="5" stroke="black"/>
    <circle cx="148.5" cy="30" r="10.5" stroke="black"/>
</svg>