<?xml version="1.0" encoding="utf-8"?>
<!-- Generator: Adobe Illustrator 23.0.3, SVG Export Plug-In . SVG Version: 6.00 Build 0)  -->
<svg version="1.1" id="Слой_1" xmlns="http://www.w3.org/2000/svg" xmlns:xlink="http://www.w3.org/1999/xlink" x="0px" y="0px"
	 viewBox="0 0 190 38" style="enable-background:new 0 0 190 38;" xml:space="preserve">
<style type="text/css">
	.st0{opacity:0.4;enable-background:new    ;}
	.st1{opacity:0.5;enable-background:new    ;}
</style>
<circle class="st0" cx="3.5" cy="29.5" r="3.5"/>
<circle class="st0" cx="78" cy="29" r="8"/>
<g class="st1">
	<path d="M6.5,7.9c0-1.4-0.5-2.5-2.1-2.5c-2.2,0-2.2,3.1-2.2,4.7c0,2.3,0.1,5.1,2.2,5.1c1.7,0,1.9-1.4,2.1-3.3h1.3
		c-0.1,2.7-0.8,4.4-3.2,4.4c-3.4,0-3.7-3.5-3.7-6.2c0-2.6,0.5-5.8,3.6-5.8c2.2,0,3.3,1.6,3.3,3.7H6.5z"/>
	<path d="M11.1,16V8.4H8.8v-1h5.7v1h-2.2V16H11.1z"/>
	<path d="M20.9,13.1c0,1.7-0.8,3.1-2.6,3.1c-1.8,0-2.8-1.1-2.8-4.5c0-2.1,0.5-4.5,2.7-4.5c2.4,0,2.7,2.5,2.7,4.8h-4.1
		c0,2,0.1,3.2,1.5,3.2c1.2,0,1.4-1.1,1.4-2H20.9z M19.7,10.9c0-1.3-0.2-2.7-1.4-2.7c-1.3,0-1.5,1.6-1.5,2.7H19.7z"/>
	<path d="M28.3,7.4V16h-1.2V8.4h-3V16h-1.2V7.4H28.3z"/>
	<path d="M35.6,13.1c0,1.7-0.8,3.1-2.6,3.1c-1.8,0-2.8-1.1-2.8-4.5c0-2.1,0.5-4.5,2.7-4.5c2.4,0,2.7,2.5,2.7,4.8h-4.1
		c0,2,0.1,3.2,1.5,3.2c1.2,0,1.4-1.1,1.4-2H35.6z M34.4,10.9c0-1.3-0.2-2.7-1.4-2.7c-1.3,0-1.5,1.6-1.5,2.7H34.4z"/>
	<path d="M38.8,10.9h3V7.4H43V16h-1.2v-4h-3v4h-1.2V7.4h1.2V10.9z"/>
	<path d="M46.5,10.9h1.7c1.4,0,2.4,1.1,2.4,2.6s-1,2.4-2.4,2.4h-2.9V7.4h1.2V10.9z M46.5,14.9h1.3c1.2,0,1.5-0.5,1.5-1.5
		c0-0.9-0.4-1.5-1.5-1.5h-1.4V14.9z"/>
	<path d="M56.3,7.4h2.8c1.3,0,2.3,0.8,2.3,2c0,1.1-0.6,1.8-1.3,2v0c0.9,0.2,1.5,0.9,1.5,2.1c0,1.5-1,2.3-2.1,2.3h-3.2V7.4z
		 M57.5,10.9h1.3c0.9,0,1.3-0.4,1.3-1.3c0-0.8-0.4-1.2-1.3-1.2h-1.3V10.9z M57.5,14.9H59c1.1,0,1.4-0.5,1.4-1.5c0-1-0.5-1.5-1.4-1.5
		h-1.4V14.9z"/>
	<path d="M69,7.4V16h-1.2V8.4h-2.7v3.4c0,2.5-0.3,4.2-1.9,4.2c-0.3,0-0.5,0-0.7-0.1v-1c0.2,0,0.3,0,0.5,0c0.7,0,0.9-0.5,0.9-3.3V7.4
		H69z"/>
	<path d="M72.5,7.4v6.5c0,0.3-0.1,0.7-0.1,1h0c0.1-0.4,0.2-0.8,0.3-1l2.8-6.5h1.5V16h-1.2V9.5c0-0.2,0.1-0.8,0.1-1.1h0
		c0,0.3-0.2,0.9-0.3,1.1L72.8,16h-1.5V7.4H72.5z"/>
	<path d="M81.6,12.4L79.9,16h-1.3l1.8-3.7c-0.9-0.4-1.5-1.3-1.5-2.4c0-1.5,1-2.4,2.4-2.4h2.9V16H83v-3.6H81.6z M83,8.4h-1.3
		c-1.1,0-1.5,0.5-1.5,1.5c0,0.9,0.4,1.4,1.5,1.4H83V8.4z"/>
	<path d="M87.6,10.9h3V7.4h1.2V16h-1.2v-4h-3v4h-1.2V7.4h1.2V10.9z"/>
	<path d="M95.3,7.4v6.5c0,0.3-0.1,0.7-0.1,1h0c0.1-0.4,0.2-0.8,0.3-1l2.8-6.5h1.5V16h-1.2V9.5c0-0.2,0.1-0.8,0.1-1.1h0
		c0,0.3-0.2,0.9-0.3,1.1L95.6,16h-1.5V7.4H95.3z"/>
	<path d="M104.5,12.4l-1.7,3.6h-1.3l1.8-3.7c-0.9-0.4-1.5-1.3-1.5-2.4c0-1.5,1-2.4,2.4-2.4h2.9V16h-1.2v-3.6H104.5z M105.8,8.4h-1.3
		c-1.1,0-1.5,0.5-1.5,1.5c0,0.9,0.4,1.4,1.5,1.4h1.4V8.4z"/>
	<path d="M114,10.2V7.4h4.7v7.5h0.8v3.3h-1.1V16h-5v2.3h-1.1v-3.3h0.7C113.8,13.3,114,12.4,114,10.2z M117.5,8.4h-2.3v2.4
		c0,1.7-0.3,2.6-0.9,4h3.2V8.4z"/>
	<path d="M126,13.1c0,1.7-0.8,3.1-2.6,3.1c-1.8,0-2.8-1.1-2.8-4.5c0-2.1,0.5-4.5,2.7-4.5c2.4,0,2.7,2.5,2.7,4.8h-4.1
		c0,2,0.1,3.2,1.5,3.2c1.2,0,1.4-1.1,1.4-2H126z M124.8,10.9c0-1.3-0.2-2.7-1.4-2.7c-1.3,0-1.5,1.6-1.5,2.7H124.8z"/>
	<path d="M133.4,7.4V16h-1.2V8.4h-3V16H128V7.4H133.4z"/>
	<path d="M136,7.4l2,6.8h0l1.9-6.8h1.3l-2.7,8.6c-0.5,1.6-0.9,2.9-2.6,2.9c-0.3,0-0.6,0-0.9-0.1v-1.1c0.3,0.1,0.6,0.2,0.9,0.2
		c0.9,0,1.2-0.8,1.5-1.7l-2.7-8.7H136z"/>
	<path d="M144,16V8.4h-2.2v-1h5.7v1h-2.2V16H144z"/>
	<path d="M148.7,9.7c0-1.8,0.9-2.5,2.5-2.5c1.7,0,2.4,1,2.4,2.2v5c0,0.4,0.1,0.7,0.5,0.7c0.1,0,0.2,0,0.3,0V16
		c-0.1,0-0.3,0.1-0.5,0.1c-0.7,0-1.1-0.1-1.3-1.2h0c-0.3,0.8-1.1,1.4-1.9,1.4c-1.5,0-2.2-0.8-2.2-2.4c0-1.5,0.6-2.1,2.1-2.6
		c0.6-0.2,1.4-0.6,1.5-0.6c0.3-0.1,0.3-0.6,0.3-1c0-1-0.3-1.3-1.3-1.3c-0.9,0-1.2,0.5-1.2,1.5H148.7z M149.6,13.8
		c0,0.8,0.3,1.3,1.1,1.3c1.3,0,1.6-0.8,1.6-1.7v-2.1C151,12,149.6,12.1,149.6,13.8z"/>
	<path d="M157.1,16V8.4h-2.2v-1h5.7v1h-2.2V16H157.1z"/>
	<path d="M161.7,9.7c0-1.8,0.9-2.5,2.5-2.5c1.7,0,2.4,1,2.4,2.2v5c0,0.4,0.1,0.7,0.5,0.7c0.1,0,0.2,0,0.3,0V16
		c-0.1,0-0.3,0.1-0.5,0.1c-0.7,0-1.1-0.1-1.3-1.2h0c-0.3,0.8-1.1,1.4-1.9,1.4c-1.5,0-2.2-0.8-2.2-2.4c0-1.5,0.6-2.1,2.1-2.6
		c0.6-0.2,1.4-0.6,1.5-0.6c0.3-0.1,0.3-0.6,0.3-1c0-1-0.3-1.3-1.3-1.3c-0.9,0-1.2,0.5-1.2,1.5H161.7z M162.7,13.8
		c0,0.8,0.3,1.3,1.1,1.3c1.3,0,1.6-0.8,1.6-1.7v-2.1C164.1,12,162.7,12.1,162.7,13.8z"/>
</g>
<g class="st1">
	<path d="M12.3,28h3v-3.5h1.2V33h-1.2v-4h-3v4h-1.2v-8.5h1.2V28z"/>
	<path d="M20,24.5V31c0,0.3-0.1,0.7-0.1,1h0c0.1-0.4,0.2-0.8,0.3-1l2.8-6.5h1.5V33h-1.2v-6.5c0-0.2,0.1-0.8,0.1-1.1h0
		c0,0.3-0.2,0.9-0.3,1.1L20.2,33h-1.5v-8.5H20z"/>
	<path d="M26.1,26.7c0.1-1.3,1.1-2.5,2.6-2.5c1.4,0,2.5,0.9,2.5,2.1c0,1.2-0.6,1.9-1.5,2.1v0c0.8,0.2,1.7,0.8,1.7,2.2
		c0,1.5-1,2.5-2.7,2.5c-1.8,0-2.6-0.9-2.8-2.9h1.1c0.1,1.5,0.6,1.9,1.6,1.9c0.9,0,1.6-0.4,1.6-1.6c0-0.9-0.5-1.6-1.4-1.6h-0.7v-1
		h0.7c0.7,0,1.2-0.5,1.2-1.4c0-0.7-0.4-1.3-1.4-1.3c-1,0-1.4,0.7-1.5,1.5H26.1z"/>
	<path d="M34.6,28.4l3-4H39l-2.6,3.3l2.7,5.2h-1.4l-2.1-4.3L34.6,30v3h-1.2v-8.5h1.2V28.4z"/>
	<path d="M40.3,26.8c0-1.8,0.9-2.5,2.5-2.5c1.7,0,2.4,1,2.4,2.2v5c0,0.4,0.1,0.7,0.5,0.7c0.1,0,0.2,0,0.3,0V33
		c-0.1,0-0.3,0.1-0.5,0.1c-0.7,0-1.1-0.1-1.3-1.2h0c-0.3,0.8-1.1,1.4-1.9,1.4c-1.5,0-2.2-0.8-2.2-2.4c0-1.5,0.6-2.1,2.1-2.6
		c0.6-0.2,1.4-0.6,1.5-0.6c0.3-0.1,0.3-0.6,0.3-1c0-1-0.3-1.3-1.3-1.3c-0.9,0-1.2,0.5-1.2,1.5H40.3z M41.2,30.8
		c0,0.8,0.3,1.3,1.1,1.3c1.3,0,1.6-0.8,1.6-1.7v-2.1C42.7,29.1,41.2,29.2,41.2,30.8z"/>
	<path d="M49.9,29.4L48.1,33h-1.3l1.8-3.7c-0.9-0.4-1.5-1.3-1.5-2.4c0-1.5,1-2.4,2.4-2.4h2.9V33h-1.2v-3.6H49.9z M51.2,25.5h-1.3
		c-1.1,0-1.5,0.5-1.5,1.5c0,0.9,0.4,1.4,1.5,1.4h1.4V25.5z"/>
</g>
<g class="st1">
	<path d="M91.3,24.5h2.8c1.3,0,2.3,0.8,2.3,2c0,1.1-0.6,1.8-1.3,2v0c0.9,0.2,1.5,0.9,1.5,2.1c0,1.5-1,2.3-2.1,2.3h-3.2V24.5z
		 M92.6,28h1.3c0.9,0,1.3-0.4,1.3-1.3c0-0.8-0.4-1.2-1.3-1.2h-1.3V28z M92.6,32H94c1.1,0,1.4-0.5,1.4-1.5c0-1-0.5-1.5-1.4-1.5h-1.4
		V32z"/>
	<path d="M99.8,28h1.7c1.4,0,2.4,1.1,2.4,2.6s-1,2.4-2.4,2.4h-2.9v-8.5h1.2V28z M99.8,32h1.3c1.2,0,1.5-0.5,1.5-1.5
		c0-0.9-0.4-1.5-1.5-1.5h-1.4V32z M106.4,33h-1.2v-8.5h1.2V33z"/>
	<path d="M109.6,28.8c0,1.4,0.1,3.4,1.6,3.4c1.3,0,1.4-1.1,1.5-2.2h1.2c0,1.6-0.7,3.2-2.6,3.2c-2.6,0-3-2.2-3-4.4
		c0-2.3,0.5-4.6,3-4.6c1.7,0,2.6,1.3,2.6,2.9h-1.2c0-0.9-0.3-1.9-1.5-1.9C109.9,25.3,109.6,27.1,109.6,28.8z"/>
	<path d="M121.4,28.7c0,3.5-1.2,4.5-3.1,4.5c-1.8,0-3.1-1-3.1-4.5c0-2.8,0.9-4.5,3.1-4.5C120.5,24.2,121.4,25.8,121.4,28.7z
		 M116.6,28.8c0,2,0.4,3.4,1.8,3.4c1.4,0,1.8-1.4,1.8-3.4c0-2.6-0.5-3.6-1.8-3.6C117.1,25.3,116.6,26.2,116.6,28.8z"/>
	<path d="M124.6,28.4l3-4h1.4l-2.6,3.3L129,33h-1.4l-2.1-4.3l-0.9,1.2v3h-1.2v-8.5h1.2V28.4z"/>
	<path d="M130.2,26.8c0-1.8,0.9-2.5,2.5-2.5c1.7,0,2.4,1,2.4,2.2v5c0,0.4,0.1,0.7,0.5,0.7c0.1,0,0.2,0,0.3,0V33
		c-0.1,0-0.3,0.1-0.5,0.1c-0.7,0-1.1-0.1-1.3-1.2h0c-0.3,0.8-1.1,1.4-1.9,1.4c-1.5,0-2.2-0.8-2.2-2.4c0-1.5,0.6-2.1,2.1-2.6
		c0.6-0.2,1.4-0.6,1.5-0.6c0.3-0.1,0.3-0.6,0.3-1c0-1-0.3-1.3-1.3-1.3c-0.9,0-1.2,0.5-1.2,1.5H130.2z M131.2,30.8
		c0,0.8,0.3,1.3,1.1,1.3c1.3,0,1.6-0.8,1.6-1.7v-2.1C132.6,29.1,131.2,29.2,131.2,30.8z"/>
	<path d="M139.8,29.4L138,33h-1.3l1.8-3.7c-0.9-0.4-1.5-1.3-1.5-2.4c0-1.5,1-2.4,2.4-2.4h2.9V33h-1.2v-3.6H139.8z M141.1,25.5h-1.3
		c-1.1,0-1.5,0.5-1.5,1.5c0,0.9,0.4,1.4,1.5,1.4h1.4V25.5z"/>
</g>
</svg>
