<svg width="190" height="38" viewBox="0 0 190 38" fill="none" xmlns="http://www.w3.org/2000/svg">
<path opacity="0.4" d="M3.5 33C5.433 33 7 31.433 7 29.5C7 27.567 5.433 26 3.5 26C1.567 26 0 27.567 0 29.5C0 31.433 1.567 33 3.5 33Z" fill="black"/>
<path opacity="0.4" d="M78 37C82.4183 37 86 33.4183 86 29C86 24.5817 82.4183 21 78 21C73.5817 21 70 24.5817 70 29C70 33.4183 73.5817 37 78 37Z" fill="black"/>
<g opacity="0.5">
<path opacity="0.5" d="M12.3001 28H15.3001V24.5H16.5001V33H15.3001V29H12.3001V33H11.1001V24.5H12.3001V28Z" fill="black"/>
<path opacity="0.5" d="M20.0002 24.5V31C20.0002 31.3 19.9002 31.7 19.9002 32C20.0002 31.6 20.1002 31.2 20.2002 31L23.0002 24.5H24.5002V33H23.3002V26.5C23.3002 26.3 23.4002 25.7 23.4002 25.4C23.4002 25.7 23.2002 26.3 23.1002 26.5L20.2002 33H18.7002V24.5H20.0002Z" fill="black"/>
<path opacity="0.5" d="M26.0999 26.7002C26.1999 25.4002 27.1999 24.2002 28.6999 24.2002C30.0999 24.2002 31.1999 25.1002 31.1999 26.3002C31.1999 27.5002 30.5999 28.2002 29.6999 28.4002C30.4999 28.6002 31.3999 29.2002 31.3999 30.6002C31.3999 32.1002 30.3999 33.1002 28.6999 33.1002C26.8999 33.1002 26.0999 32.2002 25.8999 30.2002H26.9999C27.0999 31.7002 27.5999 32.1002 28.5999 32.1002C29.4999 32.1002 30.1999 31.7002 30.1999 30.5002C30.1999 29.6002 29.6999 28.9002 28.7999 28.9002H28.0999V27.9002H28.7999C29.4999 27.9002 29.9999 27.4002 29.9999 26.5002C29.9999 25.8002 29.5999 25.2002 28.5999 25.2002C27.5999 25.2002 27.1999 25.9002 27.0999 26.7002H26.0999Z" fill="black"/>
<path opacity="0.5" d="M34.5999 28.4004L37.5999 24.4004H38.9999L36.3999 27.7004L39.0999 32.9004H37.6999L35.5999 28.6004L34.5999 30.0004V33.0004H33.3999V24.5004H34.5999V28.4004Z" fill="black"/>
<path opacity="0.5" d="M40.3001 26.7998C40.3001 24.9998 41.2001 24.2998 42.8001 24.2998C44.5001 24.2998 45.2001 25.2998 45.2001 26.4998V31.4998C45.2001 31.8998 45.3001 32.1998 45.7001 32.1998C45.8001 32.1998 45.9001 32.1998 46.0001 32.1998V32.9998C45.9001 32.9998 45.7001 33.0998 45.5001 33.0998C44.8001 33.0998 44.4001 32.9998 44.2001 31.8998C43.9001 32.6998 43.1001 33.2998 42.3001 33.2998C40.8001 33.2998 40.1001 32.4998 40.1001 30.8998C40.1001 29.3998 40.7001 28.7998 42.2001 28.2998C42.8001 28.0998 43.6001 27.6998 43.7001 27.6998C44.0001 27.5998 44.0001 27.0998 44.0001 26.6998C44.0001 25.6998 43.7001 25.3998 42.7001 25.3998C41.8001 25.3998 41.5001 25.8998 41.5001 26.8998H40.3001V26.7998ZM41.2001 30.7998C41.2001 31.5998 41.5001 32.0998 42.3001 32.0998C43.6001 32.0998 43.9001 31.2998 43.9001 30.3998V28.2998C42.7001 29.0998 41.2001 29.1998 41.2001 30.7998Z" fill="black"/>
<path opacity="0.5" d="M49.9003 29.4L48.1003 33H46.8003L48.6003 29.3C47.7003 28.9 47.1003 28 47.1003 26.9C47.1003 25.4 48.1003 24.5 49.5003 24.5H52.4003V33H51.2003V29.4H49.9003ZM51.2003 25.5H49.9003C48.8003 25.5 48.4003 26 48.4003 27C48.4003 27.9 48.8003 28.4 49.9003 28.4H51.3003V25.5H51.2003Z" fill="black"/>
</g>
<g opacity="0.5">
<path opacity="0.5" d="M91.2998 24.5H94.0998C95.3998 24.5 96.3998 25.3 96.3998 26.5C96.3998 27.6 95.7998 28.3 95.0998 28.5C95.9998 28.7 96.5998 29.4 96.5998 30.6C96.5998 32.1 95.5998 32.9 94.4998 32.9H91.2998V24.5ZM92.5998 28H93.8998C94.7998 28 95.1998 27.6 95.1998 26.7C95.1998 25.9 94.7998 25.5 93.8998 25.5H92.5998V28ZM92.5998 32H93.9998C95.0998 32 95.3998 31.5 95.3998 30.5C95.3998 29.5 94.8998 29 93.9998 29H92.5998V32Z" fill="black"/>
<path opacity="0.5" d="M99.7996 28H101.5C102.9 28 103.9 29.1 103.9 30.6C103.9 32.1 102.9 33 101.5 33H98.5996V24.5H99.7996V28ZM99.7996 32H101.1C102.3 32 102.6 31.5 102.6 30.5C102.6 29.6 102.2 29 101.1 29H99.6996V32H99.7996ZM106.4 33H105.2V24.5H106.4V33Z" fill="black"/>
<path opacity="0.5" d="M109.6 28.8002C109.6 30.2002 109.7 32.2002 111.2 32.2002C112.5 32.2002 112.6 31.1002 112.7 30.0002H113.9C113.9 31.6002 113.2 33.2002 111.3 33.2002C108.7 33.2002 108.3 31.0002 108.3 28.8002C108.3 26.5002 108.8 24.2002 111.3 24.2002C113 24.2002 113.9 25.5002 113.9 27.1002H112.7C112.7 26.2002 112.4 25.2002 111.2 25.2002C109.9 25.3002 109.6 27.1002 109.6 28.8002Z" fill="black"/>
<path opacity="0.5" d="M121.4 28.7002C121.4 32.2002 120.2 33.2002 118.3 33.2002C116.5 33.2002 115.2 32.2002 115.2 28.7002C115.2 25.9002 116.1 24.2002 118.3 24.2002C120.5 24.2002 121.4 25.8002 121.4 28.7002ZM116.6 28.8002C116.6 30.8002 117 32.2002 118.4 32.2002C119.8 32.2002 120.2 30.8002 120.2 28.8002C120.2 26.2002 119.7 25.2002 118.4 25.2002C117.1 25.3002 116.6 26.2002 116.6 28.8002Z" fill="black"/>
<path opacity="0.5" d="M124.6 28.4004L127.6 24.4004H129L126.4 27.7004L129 33.0004H127.6L125.5 28.7004L124.6 29.9004V32.9004H123.4V24.4004H124.6V28.4004Z" fill="black"/>
<path opacity="0.5" d="M130.2 26.7998C130.2 24.9998 131.1 24.2998 132.7 24.2998C134.4 24.2998 135.1 25.2998 135.1 26.4998V31.4998C135.1 31.8998 135.2 32.1998 135.6 32.1998C135.7 32.1998 135.8 32.1998 135.9 32.1998V32.9998C135.8 32.9998 135.6 33.0998 135.4 33.0998C134.7 33.0998 134.3 32.9998 134.1 31.8998C133.8 32.6998 133 33.2998 132.2 33.2998C130.7 33.2998 130 32.4998 130 30.8998C130 29.3998 130.6 28.7998 132.1 28.2998C132.7 28.0998 133.5 27.6998 133.6 27.6998C133.9 27.5998 133.9 27.0998 133.9 26.6998C133.9 25.6998 133.6 25.3998 132.6 25.3998C131.7 25.3998 131.4 25.8998 131.4 26.8998H130.2V26.7998ZM131.2 30.7998C131.2 31.5998 131.5 32.0998 132.3 32.0998C133.6 32.0998 133.9 31.2998 133.9 30.3998V28.2998C132.6 29.0998 131.2 29.1998 131.2 30.7998Z" fill="black"/>
<path opacity="0.5" d="M139.8 29.4L138 33H136.7L138.5 29.3C137.6 28.9 137 28 137 26.9C137 25.4 138 24.5 139.4 24.5H142.3V33H141.1V29.4H139.8ZM141.1 25.5H139.8C138.7 25.5 138.3 26 138.3 27C138.3 27.9 138.7 28.4 139.8 28.4H141.2V25.5H141.1Z" fill="black"/>
</g>
<g opacity="0.5">
<path opacity="0.5" d="M6.4999 7.8998C6.4999 6.4998 5.9999 5.3998 4.3999 5.3998C2.1999 5.3998 2.1999 8.4998 2.1999 10.0998C2.1999 12.3998 2.2999 15.1998 4.3999 15.1998C6.0999 15.1998 6.2999 13.7998 6.4999 11.8998H7.7999C7.6999 14.5998 6.9999 16.2998 4.5999 16.2998C1.1999 16.2998 0.899902 12.7998 0.899902 10.0998C0.899902 7.4998 1.3999 4.2998 4.4999 4.2998C6.6999 4.2998 7.7999 5.8998 7.7999 7.9998H6.4999V7.8998Z" fill="black"/>
<path opacity="0.5" d="M11.0998 16.0004V8.40039H8.7998V7.40039H14.4998V8.40039H12.2998V16.0004H11.0998Z" fill="black"/>
<path opacity="0.5" d="M20.9 13.1002C20.9 14.8002 20.1 16.2002 18.3 16.2002C16.5 16.2002 15.5 15.1002 15.5 11.7002C15.5 9.6002 16 7.2002 18.2 7.2002C20.6 7.2002 20.9 9.7002 20.9 12.0002H16.8C16.8 14.0002 16.9 15.2002 18.3 15.2002C19.5 15.2002 19.7 14.1002 19.7 13.2002H20.9V13.1002ZM19.7 10.9002C19.7 9.6002 19.5 8.2002 18.3 8.2002C17 8.2002 16.8 9.8002 16.8 10.9002H19.7V10.9002Z" fill="black"/>
<path opacity="0.5" d="M28.2999 7.40039V16.0004H27.0999V8.40039H24.0999V16.0004H22.8999V7.40039H28.2999Z" fill="black"/>
<path opacity="0.5" d="M35.6002 13.1002C35.6002 14.8002 34.8002 16.2002 33.0002 16.2002C31.2002 16.2002 30.2002 15.1002 30.2002 11.7002C30.2002 9.6002 30.7002 7.2002 32.9002 7.2002C35.3002 7.2002 35.6002 9.7002 35.6002 12.0002H31.5002C31.5002 14.0002 31.6002 15.2002 33.0002 15.2002C34.2002 15.2002 34.4002 14.1002 34.4002 13.2002H35.6002V13.1002ZM34.4002 10.9002C34.4002 9.6002 34.2002 8.2002 33.0002 8.2002C31.7002 8.2002 31.5002 9.8002 31.5002 10.9002H34.4002V10.9002Z" fill="black"/>
<path opacity="0.5" d="M38.8001 10.9004H41.8001V7.40039H43.0001V16.0004H41.8001V12.0004H38.8001V16.0004H37.6001V7.40039H38.8001V10.9004Z" fill="black"/>
<path opacity="0.5" d="M46.4998 10.9004H48.1998C49.5998 10.9004 50.5998 12.0004 50.5998 13.5004C50.5998 15.0004 49.5998 15.9004 48.1998 15.9004H45.2998V7.40039H46.4998V10.9004V10.9004ZM46.4998 14.9004H47.7998C48.9998 14.9004 49.2998 14.4004 49.2998 13.4004C49.2998 12.5004 48.8998 11.9004 47.7998 11.9004H46.3998V14.9004H46.4998Z" fill="black"/>
<path opacity="0.5" d="M56.2998 7.40039H59.0998C60.3998 7.40039 61.3998 8.20039 61.3998 9.40039C61.3998 10.5004 60.7998 11.2004 60.0998 11.4004C60.9998 11.6004 61.5998 12.3004 61.5998 13.5004C61.5998 15.0004 60.5998 15.8004 59.4998 15.8004H56.2998V7.40039V7.40039ZM57.4998 10.9004H58.7998C59.6998 10.9004 60.0998 10.5004 60.0998 9.60039C60.0998 8.80039 59.6998 8.40039 58.7998 8.40039H57.4998V10.9004ZM57.4998 14.9004H58.9998C60.0998 14.9004 60.3998 14.4004 60.3998 13.4004C60.3998 12.4004 59.8998 11.9004 58.9998 11.9004H57.5998V14.9004H57.4998Z" fill="black"/>
<path opacity="0.5" d="M69 7.40039V16.0004H67.8V8.40039H65.1V11.8004C65.1 14.3004 64.8 16.0004 63.2 16.0004C62.9 16.0004 62.7 16.0004 62.5 15.9004V14.9004C62.7 14.9004 62.8 14.9004 63 14.9004C63.7 14.9004 63.9 14.4004 63.9 11.6004V7.40039H69Z" fill="black"/>
<path opacity="0.5" d="M72.4998 7.40039V13.9004C72.4998 14.2004 72.3998 14.6004 72.3998 14.9004C72.4998 14.5004 72.5998 14.1004 72.6998 13.9004L75.4998 7.40039H76.9998V16.0004H75.7998V9.50039C75.7998 9.30039 75.8998 8.70039 75.8998 8.40039C75.8998 8.70039 75.6998 9.30039 75.5998 9.50039L72.7998 16.0004H71.2998V7.40039H72.4998Z" fill="black"/>
<path opacity="0.5" d="M81.6001 12.4L79.9001 16H78.6001L80.4001 12.3C79.5001 11.9 78.9001 11 78.9001 9.9C78.9001 8.4 79.9001 7.5 81.3001 7.5H84.2001V16H83.0001V12.4H81.6001ZM83.0001 8.4H81.7001C80.6001 8.4 80.2001 8.9 80.2001 9.9C80.2001 10.8 80.6001 11.3 81.7001 11.3H83.0001V8.4Z" fill="black"/>
<path opacity="0.5" d="M87.5999 10.9004H90.5999V7.40039H91.7999V16.0004H90.5999V12.0004H87.5999V16.0004H86.3999V7.40039H87.5999V10.9004Z" fill="black"/>
<path opacity="0.5" d="M95.3001 7.40039V13.9004C95.3001 14.2004 95.2001 14.6004 95.2001 14.9004C95.3001 14.5004 95.4001 14.1004 95.5001 13.9004L98.3001 7.40039H99.8001V16.0004H98.6001V9.50039C98.6001 9.30039 98.7001 8.70039 98.7001 8.40039C98.7001 8.70039 98.5001 9.30039 98.4001 9.50039L95.6001 16.0004H94.1001V7.40039H95.3001Z" fill="black"/>
<path opacity="0.5" d="M104.5 12.4L102.8 16H101.5L103.3 12.3C102.4 11.9 101.8 11 101.8 9.9C101.8 8.4 102.8 7.5 104.2 7.5H107.1V16H105.9V12.4H104.5ZM105.8 8.4H104.5C103.4 8.4 103 8.9 103 9.9C103 10.8 103.4 11.3 104.5 11.3H105.9V8.4H105.8Z" fill="black"/>
<g opacity="0.5">
<path d="M115.744 8.25642C116.896 8.25642 117.2 9.20042 117.2 10.1284H118.352C118.352 8.54442 117.472 7.23242 115.76 7.23242C113.312 7.23242 112.8 9.58442 112.8 11.8404C112.8 14.0484 113.168 16.2244 115.776 16.2244C117.68 16.2244 118.352 14.6404 118.352 13.0244H117.2C117.136 14.0644 117.008 15.2004 115.696 15.2004C114.144 15.2004 114.064 13.2324 114.064 11.8404C114.064 10.0644 114.288 8.25642 115.744 8.25642Z" fill="black"/>
<path d="M121.001 10.9924C121.001 9.85642 121.145 8.25642 122.489 8.25642C123.705 8.25642 123.881 9.69642 123.881 10.9924H121.001ZM123.929 13.1524C123.929 14.1284 123.705 15.2004 122.537 15.2004C121.113 15.2004 121.001 13.9684 121.001 12.0164H125.145C125.145 9.76042 124.889 7.23242 122.473 7.23242C120.217 7.23242 119.737 9.56842 119.737 11.7124C119.737 15.1524 120.777 16.2244 122.569 16.2244C124.361 16.2244 125.145 14.8324 125.145 13.1524H123.929Z" fill="black"/>
<path d="M128.289 7.45642H127.073V16.0004H128.289V12.0164H131.313V16.0004H132.529V7.45642H131.313V10.9924H128.289V7.45642Z" fill="black"/>
<path d="M138.264 11.3444V13.4084C138.264 14.2884 137.96 15.1364 136.696 15.1364C135.88 15.1364 135.56 14.5764 135.56 13.8244C135.56 12.1764 137 12.0804 138.264 11.3444ZM135.72 9.76042C135.72 8.76842 136.056 8.25642 136.968 8.25642C137.944 8.25642 138.264 8.60842 138.264 9.58442C138.264 10.0164 138.248 10.4484 137.944 10.5924C137.816 10.6564 136.984 11.0244 136.424 11.2324C134.936 11.8084 134.296 12.3524 134.296 13.8724C134.296 15.4244 135 16.2244 136.488 16.2244C137.304 16.2244 138.088 15.6004 138.376 14.8484H138.408C138.6 16.0004 138.984 16.0964 139.72 16.0964C139.928 16.0964 140.136 16.0484 140.216 16.0004V15.1044C140.152 15.1204 140.024 15.1364 139.944 15.1364C139.624 15.1364 139.48 14.8484 139.48 14.4484V9.40842C139.48 8.25642 138.808 7.23242 137.096 7.23242C135.496 7.23242 134.632 8.00042 134.632 9.76042H135.72Z" fill="black"/>
<path d="M144.274 16.0004V8.48042H146.498V7.45642H140.818V8.48042H143.058V16.0004H144.274Z" fill="black"/>
<path d="M150.575 7.23242C148.463 7.23242 147.519 8.84842 147.519 11.6964C147.519 15.2004 148.735 16.2244 150.575 16.2244C152.447 16.2244 153.631 15.2004 153.631 11.7124C153.631 8.84842 152.687 7.23242 150.575 7.23242ZM150.575 8.25642C151.855 8.25642 152.367 9.23242 152.367 11.8244C152.367 13.8404 152.015 15.2004 150.575 15.2004C149.167 15.2004 148.783 13.8404 148.783 11.8244C148.783 9.23242 149.279 8.25642 150.575 8.25642Z" fill="black"/>
<path d="M158.389 8.25642C159.941 8.25642 160.069 10.4644 160.069 11.5844C160.069 13.8884 159.669 15.2004 158.405 15.2004C156.869 15.2004 156.773 13.3444 156.773 11.7124C156.773 10.2244 156.901 8.25642 158.389 8.25642ZM156.773 7.45642H155.557V18.9764H156.773V15.1204C157.237 15.8084 157.749 16.2244 158.613 16.2244C160.757 16.2244 161.333 14.1764 161.333 11.5844C161.333 9.20042 160.693 7.23242 158.533 7.23242C157.941 7.23242 157.173 7.61642 156.789 8.41642H156.773V7.45642Z" fill="black"/>
<path d="M166.748 11.3444V13.4084C166.748 14.2884 166.444 15.1364 165.18 15.1364C164.364 15.1364 164.044 14.5764 164.044 13.8244C164.044 12.1764 165.484 12.0804 166.748 11.3444ZM164.204 9.76042C164.204 8.76842 164.54 8.25642 165.452 8.25642C166.428 8.25642 166.748 8.60842 166.748 9.58442C166.748 10.0164 166.732 10.4484 166.428 10.5924C166.3 10.6564 165.468 11.0244 164.908 11.2324C163.42 11.8084 162.78 12.3524 162.78 13.8724C162.78 15.4244 163.484 16.2244 164.972 16.2244C165.788 16.2244 166.572 15.6004 166.86 14.8484H166.892C167.084 16.0004 167.468 16.0964 168.204 16.0964C168.412 16.0964 168.62 16.0484 168.7 16.0004V15.1044C168.636 15.1204 168.508 15.1364 168.428 15.1364C168.108 15.1364 167.964 14.8484 167.964 14.4484V9.40842C167.964 8.25642 167.292 7.23242 165.58 7.23242C163.98 7.23242 163.116 8.00042 163.116 9.76042H164.204Z" fill="black"/>
</g>
</g>
</svg>
