<svg width="190" height="38" viewBox="0 0 190 38" fill="none" xmlns="http://www.w3.org/2000/svg">
    <g opacity="0.3">
        <path d="M14.856 25.232C12.744 25.232 11.8 26.848 11.8 29.696C11.8 33.2 13.016 34.224 14.856 34.224C16.728 34.224 17.912 33.2 17.912 29.712C17.912 26.848 16.968 25.232 14.856 25.232ZM14.856 26.256C16.136 26.256 16.648 27.232 16.648 29.824C16.648 31.84 16.296 33.2 14.856 33.2C13.448 33.2 13.064 31.84 13.064 29.824C13.064 27.232 13.56 26.256 14.856 26.256ZM19.8388 25.456V34H21.0548V26.48H24.3508V25.456H19.8388ZM28.5301 26.256C30.0821 26.256 30.2101 28.464 30.2101 29.584C30.2101 31.888 29.8101 33.2 28.5461 33.2C27.0101 33.2 26.9141 31.344 26.9141 29.712C26.9141 28.224 27.0421 26.256 28.5301 26.256ZM26.9141 25.456H25.6981V36.976H26.9141V33.12C27.3781 33.808 27.8901 34.224 28.7541 34.224C30.8981 34.224 31.4741 32.176 31.4741 29.584C31.4741 27.2 30.8341 25.232 28.6741 25.232C28.0821 25.232 27.3141 25.616 26.9301 26.416H26.9141V25.456ZM36.8893 29.344V31.408C36.8893 32.288 36.5853 33.136 35.3213 33.136C34.5053 33.136 34.1853 32.576 34.1853 31.824C34.1853 30.176 35.6253 30.08 36.8893 29.344ZM34.3453 27.76C34.3453 26.768 34.6813 26.256 35.5933 26.256C36.5693 26.256 36.8893 26.608 36.8893 27.584C36.8893 28.016 36.8733 28.448 36.5693 28.592C36.4413 28.656 35.6093 29.024 35.0493 29.232C33.5613 29.808 32.9213 30.352 32.9213 31.872C32.9213 33.424 33.6253 34.224 35.1133 34.224C35.9293 34.224 36.7133 33.6 37.0013 32.848H37.0333C37.2253 34 37.6093 34.096 38.3453 34.096C38.5533 34.096 38.7613 34.048 38.8413 34V33.104C38.7773 33.12 38.6493 33.136 38.5693 33.136C38.2493 33.136 38.1053 32.848 38.1053 32.448V27.408C38.1053 26.256 37.4333 25.232 35.7213 25.232C34.1213 25.232 33.2573 26 33.2573 27.76H34.3453ZM41.5548 25.456H40.3388V34H41.5548V30.016H44.5788V34H45.7948V25.456H44.5788V28.992H41.5548V25.456ZM48.0419 25.456V34H49.5139L52.3459 27.52C52.4099 27.392 52.5539 26.752 52.6019 26.464H52.6179C52.5699 26.736 52.4899 27.28 52.4899 27.52V34H53.7059V25.456H52.2339L49.4019 31.952C49.3219 32.144 49.2259 32.576 49.1459 32.976H49.1299C49.1939 32.672 49.2579 32.256 49.2579 31.952V25.456H48.0419ZM55.6281 25.456V27.984C55.6281 29.152 56.2521 30.176 57.7561 30.176C58.6041 30.176 59.0521 30.144 59.6121 30.016V34H60.8281V25.456H59.6121V29.072C59.3241 29.104 59.0201 29.152 58.1721 29.152C57.1001 29.152 56.8441 28.736 56.8441 27.872V25.456H55.6281ZM64.0171 28.992C64.0171 27.856 64.1611 26.256 65.5051 26.256C66.7211 26.256 66.8971 27.696 66.8971 28.992H64.0171ZM66.9451 31.152C66.9451 32.128 66.7211 33.2 65.5531 33.2C64.1291 33.2 64.0171 31.968 64.0171 30.016H68.1611C68.1611 27.76 67.9051 25.232 65.4891 25.232C63.2331 25.232 62.7531 27.568 62.7531 29.712C62.7531 33.152 63.7931 34.224 65.5851 34.224C67.3771 34.224 68.1611 32.832 68.1611 31.152H66.9451ZM71.3048 25.456H70.0888V34H71.3048V30.016H74.3288V34H75.5448V25.456H74.3288V28.992H71.3048V25.456ZM79.0079 25.456H77.7919V34H79.0079V30.016H82.0319V34H83.2479V25.456H82.0319V28.992H79.0079V25.456ZM86.711 30.016H88.071C89.127 30.016 89.527 30.592 89.527 31.52C89.527 32.48 89.143 32.976 87.991 32.976H86.711V30.016ZM86.711 25.456H85.495V34H88.423C89.799 34 90.791 33.04 90.791 31.568C90.791 30.096 89.831 28.992 88.423 28.992H86.711V25.456ZM93.399 25.456H92.183V34H93.399V25.456ZM96.5796 28.992C96.5796 27.856 96.7236 26.256 98.0676 26.256C99.2836 26.256 99.4596 27.696 99.4596 28.992H96.5796ZM99.5076 31.152C99.5076 32.128 99.2836 33.2 98.1156 33.2C96.6916 33.2 96.5796 31.968 96.5796 30.016H100.724C100.724 27.76 100.468 25.232 98.0516 25.232C95.7956 25.232 95.3156 27.568 95.3156 29.712C95.3156 33.152 96.3556 34.224 98.1476 34.224C99.9396 34.224 100.724 32.832 100.724 31.152H99.5076ZM134.617 25.456H133.401V34H142.617V25.456H141.401V32.976H138.617V25.456H137.401V32.976H134.617V25.456ZM144.854 25.456V34H146.326L149.158 27.52C149.222 27.392 149.366 26.752 149.414 26.464H149.43C149.382 26.736 149.302 27.28 149.302 27.52V34H150.518V25.456H149.046L146.214 31.952C146.134 32.144 146.038 32.576 145.958 32.976H145.942C146.006 32.672 146.07 32.256 146.07 31.952V25.456H144.854ZM155.593 26.256C157.145 26.256 157.273 28.464 157.273 29.584C157.273 31.888 156.873 33.2 155.609 33.2C154.073 33.2 153.977 31.344 153.977 29.712C153.977 28.224 154.105 26.256 155.593 26.256ZM153.977 25.456H152.761V36.976H153.977V33.12C154.441 33.808 154.953 34.224 155.817 34.224C157.961 34.224 158.537 32.176 158.537 29.584C158.537 27.2 157.897 25.232 155.737 25.232C155.145 25.232 154.377 25.616 153.993 26.416H153.977V25.456ZM163.2 25.232C161.088 25.232 160.144 26.848 160.144 29.696C160.144 33.2 161.36 34.224 163.2 34.224C165.072 34.224 166.256 33.2 166.256 29.712C166.256 26.848 165.312 25.232 163.2 25.232ZM163.2 26.256C164.48 26.256 164.992 27.232 164.992 29.824C164.992 31.84 164.64 33.2 163.2 33.2C161.792 33.2 161.408 31.84 161.408 29.824C161.408 27.232 161.904 26.256 163.2 26.256ZM169.399 25.456H168.183V34H169.399V30.96L170.327 29.744L172.455 34H173.879L171.159 28.784L173.799 25.456H172.359L169.399 29.44V25.456ZM175.229 25.456V34H176.701L179.533 27.52C179.597 27.392 179.741 26.752 179.789 26.464H179.805C179.757 26.736 179.677 27.28 179.677 27.52V34H180.893V25.456H179.421L176.589 31.952C176.509 32.144 176.413 32.576 176.333 32.976H176.317C176.381 32.672 176.445 32.256 176.445 31.952V25.456H175.229ZM184.08 28.992C184.08 27.856 184.224 26.256 185.568 26.256C186.784 26.256 186.96 27.696 186.96 28.992H184.08ZM187.008 31.152C187.008 32.128 186.784 33.2 185.616 33.2C184.192 33.2 184.08 31.968 184.08 30.016H188.224C188.224 27.76 187.968 25.232 185.552 25.232C183.296 25.232 182.816 27.568 182.816 29.712C182.816 33.152 183.856 34.224 185.648 34.224C187.44 34.224 188.224 32.832 188.224 31.152H187.008Z" fill="black"/>
        <path d="M2.016 4.48V9.504C2.016 13.2 1.92 14.992 0.736 14.992C0.592 14.992 0.416 14.976 0.24 14.912V16.048C0.496 16.112 0.768 16.144 1.008 16.144C3.248 16.144 3.296 12.768 3.296 10.192V5.632H7.168V16H8.448V4.48H2.016ZM13.4966 7.232C11.3846 7.232 10.4406 8.848 10.4406 11.696C10.4406 15.2 11.6566 16.224 13.4966 16.224C15.3686 16.224 16.5526 15.2 16.5526 11.712C16.5526 8.848 15.6086 7.232 13.4966 7.232ZM13.4966 8.256C14.7766 8.256 15.2886 9.232 15.2886 11.824C15.2886 13.84 14.9366 15.2 13.4966 15.2C12.0886 15.2 11.7046 13.84 11.7046 11.824C11.7046 9.232 12.2006 8.256 13.4966 8.256ZM19.3434 8.992C19.4714 7.52 20.2234 6.592 21.4074 6.32C22.7354 6.032 23.5834 5.616 23.8394 4.48H22.8474C22.7354 4.96 21.9354 5.168 20.9274 5.424C19.1674 5.872 18.1594 7.408 18.1594 11.12C18.1594 14.512 18.9434 16.224 21.2154 16.224C23.3274 16.224 24.2714 14.736 24.2714 11.728C24.2714 9.168 23.1674 7.664 21.3914 7.664C20.5434 7.664 19.8234 8.128 19.3434 8.992ZM21.2154 15.2C19.9354 15.2 19.4234 14 19.4234 11.728C19.4234 9.936 20.0154 8.688 21.2154 8.688C22.4474 8.688 23.0074 10.016 23.0074 11.728C23.0074 14 22.4954 15.2 21.2154 15.2ZM27.0621 8.992C27.1901 7.52 27.9421 6.592 29.1261 6.32C30.4541 6.032 31.3021 5.616 31.5581 4.48H30.5661C30.4541 4.96 29.6541 5.168 28.6461 5.424C26.8861 5.872 25.8781 7.408 25.8781 11.12C25.8781 14.512 26.6621 16.224 28.9341 16.224C31.0461 16.224 31.9901 14.736 31.9901 11.728C31.9901 9.168 30.8861 7.664 29.1101 7.664C28.2621 7.664 27.5421 8.128 27.0621 8.992ZM28.9341 15.2C27.6541 15.2 27.1421 14 27.1421 11.728C27.1421 9.936 27.7341 8.688 28.9341 8.688C30.1661 8.688 30.7261 10.016 30.7261 11.728C30.7261 14 30.2141 15.2 28.9341 15.2ZM33.9169 7.456V16H35.3889L38.2209 9.52C38.2849 9.392 38.4289 8.752 38.4769 8.464H38.4929C38.4449 8.736 38.3649 9.28 38.3649 9.52V16H39.5809V7.456H38.1089L35.2769 13.952C35.1969 14.144 35.1009 14.576 35.0209 14.976H35.0049C35.0689 14.672 35.1329 14.256 35.1329 13.952V7.456H33.9169ZM44.4471 8.256C45.5991 8.256 45.9031 9.2 45.9031 10.128H47.0551C47.0551 8.544 46.1751 7.232 44.4631 7.232C42.0151 7.232 41.5031 9.584 41.5031 11.84C41.5031 14.048 41.8711 16.224 44.4791 16.224C46.3831 16.224 47.0551 14.64 47.0551 13.024H45.9031C45.8391 14.064 45.7111 15.2 44.3991 15.2C42.8471 15.2 42.7671 13.232 42.7671 11.84C42.7671 10.064 42.9911 8.256 44.4471 8.256ZM51.3206 16V8.48H53.5446V7.456H47.8646V8.48H50.1046V16H51.3206ZM57.5096 8.256C58.6616 8.256 58.9656 9.2 58.9656 10.128H60.1176C60.1176 8.544 59.2376 7.232 57.5256 7.232C55.0776 7.232 54.5656 9.584 54.5656 11.84C54.5656 14.048 54.9336 16.224 57.5416 16.224C59.4456 16.224 60.1176 14.64 60.1176 13.024H58.9656C58.9016 14.064 58.7736 15.2 57.4616 15.2C55.9096 15.2 55.8296 13.232 55.8296 11.84C55.8296 10.064 56.0536 8.256 57.5096 8.256ZM63.0391 7.456H61.8231V16H63.0391V12.96L63.9671 11.744L66.0951 16H67.5191L64.7991 10.784L67.4391 7.456H65.9991L63.0391 11.44V7.456ZM68.87 7.456V16H70.342L73.174 9.52C73.238 9.392 73.382 8.752 73.43 8.464H73.446C73.398 8.736 73.318 9.28 73.318 9.52V16H74.534V7.456H73.062L70.23 13.952C70.15 14.144 70.054 14.576 69.974 14.976H69.958C70.022 14.672 70.086 14.256 70.086 13.952V7.456H68.87ZM77.7203 10.992C77.7203 9.856 77.8643 8.256 79.2083 8.256C80.4243 8.256 80.6003 9.696 80.6003 10.992H77.7203ZM80.6483 13.152C80.6483 14.128 80.4243 15.2 79.2563 15.2C77.8323 15.2 77.7203 13.968 77.7203 12.016H81.8643C81.8643 9.76 81.6083 7.232 79.1923 7.232C76.9363 7.232 76.4563 9.568 76.4563 11.712C76.4563 15.152 77.4963 16.224 79.2883 16.224C81.0803 16.224 81.8643 14.832 81.8643 13.152H80.6483ZM88.8516 8.48H90.1796C91.0596 8.48 91.4756 8.864 91.4756 9.696C91.4756 10.624 91.0596 10.992 90.1316 10.992H88.8516V8.48ZM88.8516 12.016H90.2596C91.1716 12.016 91.6836 12.496 91.6836 13.488C91.6836 14.496 91.3956 14.976 90.2756 14.976H88.8516V12.016ZM87.6356 16H90.8036C91.9236 16 92.9156 15.152 92.9156 13.68C92.9156 12.496 92.3236 11.776 91.3796 11.552V11.52C92.1476 11.312 92.7076 10.592 92.7076 9.488C92.7076 8.24 91.6836 7.456 90.4036 7.456H87.6356V16ZM97.5748 7.232C95.4628 7.232 94.5188 8.848 94.5188 11.696C94.5188 15.2 95.7348 16.224 97.5748 16.224C99.4468 16.224 100.631 15.2 100.631 11.712C100.631 8.848 99.6868 7.232 97.5748 7.232ZM97.5748 8.256C98.8548 8.256 99.3668 9.232 99.3668 11.824C99.3668 13.84 99.0148 15.2 97.5748 15.2C96.1668 15.2 95.7828 13.84 95.7828 11.824C95.7828 9.232 96.2788 8.256 97.5748 8.256ZM103.166 9.744C103.214 8.912 103.646 8.256 104.622 8.256C105.598 8.256 105.982 8.912 105.982 9.584C105.982 10.464 105.422 10.992 104.734 10.992H104.078V12.016H104.75C105.661 12.016 106.174 12.704 106.174 13.616C106.174 14.784 105.549 15.2 104.622 15.2C103.646 15.2 103.166 14.768 103.038 13.312H101.918C102.062 15.312 102.926 16.224 104.702 16.224C106.366 16.224 107.406 15.2 107.406 13.696C107.406 12.304 106.462 11.664 105.661 11.504V11.472C106.542 11.232 107.182 10.528 107.182 9.376C107.182 8.16 106.094 7.232 104.654 7.232C103.102 7.232 102.11 8.4 102.046 9.744H103.166ZM109.323 7.456V16H110.491V8.48H110.507L112.651 16H113.467L115.627 8.48H115.643V16H116.811V7.456H114.923L113.371 13.088C113.243 13.552 113.179 14.24 113.083 14.816H113.067C112.971 14.24 112.875 13.488 112.763 13.088L111.211 7.456H109.323ZM121.794 7.232C119.682 7.232 118.738 8.848 118.738 11.696C118.738 15.2 119.954 16.224 121.794 16.224C123.666 16.224 124.85 15.2 124.85 11.712C124.85 8.848 123.906 7.232 121.794 7.232ZM121.794 8.256C123.074 8.256 123.586 9.232 123.586 11.824C123.586 13.84 123.234 15.2 121.794 15.2C120.386 15.2 120.002 13.84 120.002 11.824C120.002 9.232 120.498 8.256 121.794 8.256ZM130.296 7.456V11.44L127.336 7.456H125.896L128.536 10.784L125.816 16H127.24L129.368 11.744L130.296 12.96V16H131.512V12.96L132.44 11.744L134.568 16H135.992L133.272 10.784L135.912 7.456H134.472L131.512 11.44V7.456H130.296ZM138.492 7.456H137.276V16H138.492V12.016H141.516V16H142.732V7.456H141.516V10.992H138.492V7.456ZM147.715 7.232C145.603 7.232 144.659 8.848 144.659 11.696C144.659 15.2 145.875 16.224 147.715 16.224C149.587 16.224 150.771 15.2 150.771 11.712C150.771 8.848 149.827 7.232 147.715 7.232ZM147.715 8.256C148.995 8.256 149.507 9.232 149.507 11.824C149.507 13.84 149.155 15.2 147.715 15.2C146.307 15.2 145.923 13.84 145.923 11.824C145.923 9.232 146.419 8.256 147.715 8.256ZM155.322 8.256C156.474 8.256 156.778 9.2 156.778 10.128H157.93C157.93 8.544 157.05 7.232 155.338 7.232C152.89 7.232 152.378 9.584 152.378 11.84C152.378 14.048 152.746 16.224 155.354 16.224C157.258 16.224 157.93 14.64 157.93 13.024H156.778C156.714 14.064 156.586 15.2 155.274 15.2C153.722 15.2 153.642 13.232 153.642 11.84C153.642 10.064 153.866 8.256 155.322 8.256ZM162.196 16V8.48H164.42V7.456H158.74V8.48H160.98V16H162.196ZM165.761 7.456V16H167.233L170.065 9.52C170.129 9.392 170.273 8.752 170.321 8.464H170.337C170.289 8.736 170.209 9.28 170.209 9.52V16H171.425V7.456H169.953L167.121 13.952C167.041 14.144 166.945 14.576 166.865 14.976H166.849C166.913 14.672 166.977 14.256 166.977 13.952V7.456H165.761Z" fill="black"/>
    </g>
    <circle opacity="0.4" cx="3.5" cy="29.5" r="3.5" fill="black"/>
    <circle opacity="0.4" cx="121" cy="29" r="8" fill="black"/>
</svg>
