<svg xmlns="http://www.w3.org/2000/svg" width="202" height="41" viewBox="0 0 202 41" fill="none" id="legend">
    <g id="legend_g">
        <path id="help" opacity="0.0" d="M195.031 29.5C195.448 29.0833 195.656 28.5833 195.656 28C195.656 27.2708 195.396 26.6458 194.875 26.125C194.354 25.6042 193.729 25.3438 193 25.3438C192.271 25.3438 191.646 25.6042 191.125 26.125C190.604 26.6458 190.344 27.2708 190.344 28H191.656C191.656 27.6458 191.792 27.3333 192.062 27.0625C192.333 26.7917 192.646 26.6562 193 26.6562C193.354 26.6562 193.667 26.7917 193.938 27.0625C194.208 27.3333 194.344 27.6458 194.344 28C194.344 28.3542 194.208 28.6667 193.938 28.9375L193.125 29.7812C192.604 30.3438 192.344 30.9688 192.344 31.6562V32H193.656C193.656 31.3125 193.917 30.6875 194.438 30.125L195.031 29.5ZM193.656 34.6562V33.3438H192.344V34.6562H193.656ZM188.281 25.3125C189.594 24 191.167 23.3438 193 23.3438C194.833 23.3438 196.396 24 197.688 25.3125C199 26.6042 199.656 28.1667 199.656 30C199.656 31.8333 199 33.4062 197.688 34.7188C196.396 36.0104 194.833 36.6562 193 36.6562C191.167 36.6562 189.594 36.0104 188.281 34.7188C186.99 33.4062 186.344 31.8333 186.344 30C186.344 28.1667 186.99 26.6042 188.281 25.3125Z" fill="black"/>
        <g id="group" opacity="0.3">
            <path id="s1" d="M20.5263 25.456V34H21.7423V26.48H25.0383V25.456H20.5263ZM29.2176 26.256C30.7696 26.256 30.8976 28.464 30.8976 29.584C30.8976 31.888 30.4976 33.2 29.2336 33.2C27.6976 33.2 27.6016 31.344 27.6016 29.712C27.6016 28.224 27.7296 26.256 29.2176 26.256ZM27.6016 25.456H26.3856V36.976H27.6016V33.12C28.0656 33.808 28.5776 34.224 29.4416 34.224C31.5856 34.224 32.1616 32.176 32.1616 29.584C32.1616 27.2 31.5216 25.232 29.3616 25.232C28.7696 25.232 28.0016 25.616 27.6176 26.416H27.6016V25.456ZM37.5768 29.344V31.408C37.5768 32.288 37.2728 33.136 36.0088 33.136C35.1928 33.136 34.8728 32.576 34.8728 31.824C34.8728 30.176 36.3128 30.08 37.5768 29.344ZM35.0328 27.76C35.0328 26.768 35.3688 26.256 36.2808 26.256C37.2568 26.256 37.5768 26.608 37.5768 27.584C37.5768 28.016 37.5608 28.448 37.2568 28.592C37.1288 28.656 36.2968 29.024 35.7368 29.232C34.2488 29.808 33.6088 30.352 33.6088 31.872C33.6088 33.424 34.3128 34.224 35.8008 34.224C36.6168 34.224 37.4008 33.6 37.6888 32.848H37.7208C37.9128 34 38.2968 34.096 39.0328 34.096C39.2408 34.096 39.4488 34.048 39.5288 34V33.104C39.4648 33.12 39.3368 33.136 39.2568 33.136C38.9368 33.136 38.7928 32.848 38.7928 32.448V27.408C38.7928 26.256 38.1208 25.232 36.4088 25.232C34.8088 25.232 33.9448 26 33.9448 27.76H35.0328ZM42.2423 25.456H41.0263V34H42.2423V30.016H45.2663V34H46.4823V25.456H45.2663V28.992H42.2423V25.456ZM48.7294 25.456V34H50.2014L53.0334 27.52C53.0974 27.392 53.2414 26.752 53.2894 26.464H53.3054C53.2574 26.736 53.1774 27.28 53.1774 27.52V34H54.3934V25.456H52.9214L50.0894 31.952C50.0094 32.144 49.9134 32.576 49.8334 32.976H49.8174C49.8814 32.672 49.9454 32.256 49.9454 31.952V25.456H48.7294ZM56.3156 25.456V27.984C56.3156 29.152 56.9396 30.176 58.4436 30.176C59.2916 30.176 59.7396 30.144 60.2996 30.016V34H61.5156V25.456H60.2996V29.072C60.0116 29.104 59.7076 29.152 58.8596 29.152C57.7876 29.152 57.5316 28.736 57.5316 27.872V25.456H56.3156ZM64.7046 28.992C64.7046 27.856 64.8486 26.256 66.1926 26.256C67.4086 26.256 67.5846 27.696 67.5846 28.992H64.7046ZM67.6326 31.152C67.6326 32.128 67.4086 33.2 66.2406 33.2C64.8166 33.2 64.7046 31.968 64.7046 30.016H68.8486C68.8486 27.76 68.5926 25.232 66.1766 25.232C63.9206 25.232 63.4406 27.568 63.4406 29.712C63.4406 33.152 64.4806 34.224 66.2726 34.224C68.0646 34.224 68.8486 32.832 68.8486 31.152H67.6326ZM71.9923 25.456H70.7763V34H71.9923V30.016H75.0163V34H76.2323V25.456H75.0163V28.992H71.9923V25.456ZM79.6954 25.456H78.4794V34H79.6954V30.016H82.7194V34H83.9354V25.456H82.7194V28.992H79.6954V25.456ZM87.3985 30.016H88.7585C89.8145 30.016 90.2145 30.592 90.2145 31.52C90.2145 32.48 89.8305 32.976 88.6785 32.976H87.3985V30.016ZM87.3985 25.456H86.1825V34H89.1105C90.4865 34 91.4785 33.04 91.4785 31.568C91.4785 30.096 90.5185 28.992 89.1105 28.992H87.3985V25.456ZM94.0865 25.456H92.8705V34H94.0865V25.456ZM97.2671 28.992C97.2671 27.856 97.4111 26.256 98.7551 26.256C99.9711 26.256 100.147 27.696 100.147 28.992H97.2671ZM100.195 31.152C100.195 32.128 99.9711 33.2 98.8031 33.2C97.3791 33.2 97.2671 31.968 97.2671 30.016H101.411C101.411 27.76 101.155 25.232 98.7391 25.232C96.4831 25.232 96.0031 27.568 96.0031 29.712C96.0031 33.152 97.0431 34.224 98.8351 34.224C100.627 34.224 101.411 32.832 101.411 31.152H100.195ZM103.451 32.464V34H104.203C104.203 34.576 104.091 35.376 103.451 35.552V36.24C104.347 35.984 104.843 35.136 104.843 34.272V32.464H103.451ZM112.242 25.456H111.026V34H120.242V25.456H119.026V32.976H116.242V25.456H115.026V32.976H112.242V25.456ZM122.479 25.456V34H123.951L126.783 27.52C126.847 27.392 126.991 26.752 127.039 26.464H127.055C127.007 26.736 126.927 27.28 126.927 27.52V34H128.143V25.456H126.671L123.839 31.952C123.759 32.144 123.663 32.576 123.583 32.976H123.567C123.631 32.672 123.695 32.256 123.695 31.952V25.456H122.479ZM133.218 26.256C134.77 26.256 134.898 28.464 134.898 29.584C134.898 31.888 134.498 33.2 133.234 33.2C131.698 33.2 131.602 31.344 131.602 29.712C131.602 28.224 131.73 26.256 133.218 26.256ZM131.602 25.456H130.386V36.976H131.602V33.12C132.066 33.808 132.578 34.224 133.442 34.224C135.586 34.224 136.162 32.176 136.162 29.584C136.162 27.2 135.522 25.232 133.362 25.232C132.77 25.232 132.002 25.616 131.618 26.416H131.602V25.456ZM162.367 25.456H161.151V34H162.367V30.96L163.295 29.744L165.423 34H166.847L164.127 28.784L166.767 25.456H165.327L162.367 29.44V25.456ZM168.198 25.456V34H169.67L172.502 27.52C172.566 27.392 172.71 26.752 172.758 26.464H172.774C172.726 26.736 172.646 27.28 172.646 27.52V34H173.862V25.456H172.39L169.558 31.952C169.478 32.144 169.382 32.576 169.302 32.976H169.286C169.35 32.672 169.414 32.256 169.414 31.952V25.456H168.198ZM177.048 28.992C177.048 27.856 177.192 26.256 178.536 26.256C179.752 26.256 179.928 27.696 179.928 28.992H177.048ZM179.976 31.152C179.976 32.128 179.752 33.2 178.584 33.2C177.16 33.2 177.048 31.968 177.048 30.016H181.192C181.192 27.76 180.936 25.232 178.52 25.232C176.264 25.232 175.784 27.568 175.784 29.712C175.784 33.152 176.824 34.224 178.616 34.224C180.408 34.224 181.192 32.832 181.192 31.152H179.976Z" fill="black"/>
            <path id="s2" d="M27.6254 4.48V9.504C27.6254 13.2 27.5294 14.992 26.3454 14.992C26.2014 14.992 26.0254 14.976 25.8494 14.912V16.048C26.1054 16.112 26.3774 16.144 26.6174 16.144C28.8574 16.144 28.9054 12.768 28.9054 10.192V5.632H32.7774V16H34.0574V4.48H27.6254ZM39.106 7.232C36.994 7.232 36.05 8.848 36.05 11.696C36.05 15.2 37.266 16.224 39.106 16.224C40.978 16.224 42.162 15.2 42.162 11.712C42.162 8.848 41.218 7.232 39.106 7.232ZM39.106 8.256C40.386 8.256 40.898 9.232 40.898 11.824C40.898 13.84 40.546 15.2 39.106 15.2C37.698 15.2 37.314 13.84 37.314 11.824C37.314 9.232 37.81 8.256 39.106 8.256ZM44.9528 8.992C45.0807 7.52 45.8328 6.592 47.0168 6.32C48.3448 6.032 49.1928 5.616 49.4488 4.48H48.4568C48.3448 4.96 47.5448 5.168 46.5368 5.424C44.7768 5.872 43.7688 7.408 43.7688 11.12C43.7688 14.512 44.5528 16.224 46.8248 16.224C48.9368 16.224 49.8808 14.736 49.8808 11.728C49.8808 9.168 48.7768 7.664 47.0008 7.664C46.1528 7.664 45.4328 8.128 44.9528 8.992ZM46.8248 15.2C45.5448 15.2 45.0328 14 45.0328 11.728C45.0328 9.936 45.6248 8.688 46.8248 8.688C48.0568 8.688 48.6168 10.016 48.6168 11.728C48.6168 14 48.1048 15.2 46.8248 15.2ZM52.6715 8.992C52.7995 7.52 53.5515 6.592 54.7355 6.32C56.0635 6.032 56.9115 5.616 57.1675 4.48H56.1755C56.0635 4.96 55.2635 5.168 54.2555 5.424C52.4955 5.872 51.4875 7.408 51.4875 11.12C51.4875 14.512 52.2715 16.224 54.5435 16.224C56.6555 16.224 57.5995 14.736 57.5995 11.728C57.5995 9.168 56.4955 7.664 54.7195 7.664C53.8715 7.664 53.1515 8.128 52.6715 8.992ZM54.5435 15.2C53.2635 15.2 52.7515 14 52.7515 11.728C52.7515 9.936 53.3435 8.688 54.5435 8.688C55.7755 8.688 56.3355 10.016 56.3355 11.728C56.3355 14 55.8235 15.2 54.5435 15.2ZM59.5263 7.456V16H60.9983L63.8303 9.52C63.8943 9.392 64.0383 8.752 64.0863 8.464H64.1023C64.0543 8.736 63.9743 9.28 63.9743 9.52V16H65.1903V7.456H63.7183L60.8863 13.952C60.8063 14.144 60.7103 14.576 60.6303 14.976H60.6143C60.6783 14.672 60.7423 14.256 60.7423 13.952V7.456H59.5263ZM70.0565 8.256C71.2085 8.256 71.5125 9.2 71.5125 10.128H72.6645C72.6645 8.544 71.7845 7.232 70.0725 7.232C67.6245 7.232 67.1125 9.584 67.1125 11.84C67.1125 14.048 67.4805 16.224 70.0885 16.224C71.9925 16.224 72.6645 14.64 72.6645 13.024H71.5125C71.4485 14.064 71.3205 15.2 70.0085 15.2C68.4565 15.2 68.3765 13.232 68.3765 11.84C68.3765 10.064 68.6005 8.256 70.0565 8.256ZM76.93 16V8.48H79.154V7.456H73.474V8.48H75.714V16H76.93ZM83.119 8.256C84.271 8.256 84.575 9.2 84.575 10.128H85.727C85.727 8.544 84.847 7.232 83.135 7.232C80.687 7.232 80.175 9.584 80.175 11.84C80.175 14.048 80.543 16.224 83.151 16.224C85.055 16.224 85.727 14.64 85.727 13.024H84.575C84.511 14.064 84.383 15.2 83.071 15.2C81.519 15.2 81.439 13.232 81.439 11.84C81.439 10.064 81.663 8.256 83.119 8.256ZM88.6485 7.456H87.4325V16H88.6485V12.96L89.5765 11.744L91.7045 16H93.1285L90.4085 10.784L93.0485 7.456H91.6085L88.6485 11.44V7.456ZM94.4794 7.456V16H95.9514L98.7834 9.52C98.8474 9.392 98.9914 8.752 99.0394 8.464H99.0554C99.0074 8.736 98.9274 9.28 98.9274 9.52V16H100.143V7.456H98.6714L95.8394 13.952C95.7594 14.144 95.6634 14.576 95.5834 14.976H95.5674C95.6314 14.672 95.6954 14.256 95.6954 13.952V7.456H94.4794ZM103.33 10.992C103.33 9.856 103.474 8.256 104.818 8.256C106.034 8.256 106.21 9.696 106.21 10.992H103.33ZM106.258 13.152C106.258 14.128 106.034 15.2 104.866 15.2C103.442 15.2 103.33 13.968 103.33 12.016H107.474C107.474 9.76 107.218 7.232 104.802 7.232C102.546 7.232 102.066 9.568 102.066 11.712C102.066 15.152 103.106 16.224 104.898 16.224C106.69 16.224 107.474 14.832 107.474 13.152H106.258ZM114.461 8.48H115.789C116.669 8.48 117.085 8.864 117.085 9.696C117.085 10.624 116.669 10.992 115.741 10.992H114.461V8.48ZM114.461 12.016H115.869C116.781 12.016 117.293 12.496 117.293 13.488C117.293 14.496 117.005 14.976 115.885 14.976H114.461V12.016ZM113.245 16H116.413C117.533 16 118.525 15.152 118.525 13.68C118.525 12.496 117.933 11.776 116.989 11.552V11.52C117.757 11.312 118.317 10.592 118.317 9.488C118.317 8.24 117.293 7.456 116.013 7.456H113.245V16ZM123.184 7.232C121.072 7.232 120.128 8.848 120.128 11.696C120.128 15.2 121.344 16.224 123.184 16.224C125.056 16.224 126.24 15.2 126.24 11.712C126.24 8.848 125.296 7.232 123.184 7.232ZM123.184 8.256C124.464 8.256 124.976 9.232 124.976 11.824C124.976 13.84 124.624 15.2 123.184 15.2C121.776 15.2 121.392 13.84 121.392 11.824C121.392 9.232 121.888 8.256 123.184 8.256ZM128.775 9.744C128.823 8.912 129.255 8.256 130.231 8.256C131.207 8.256 131.591 8.912 131.591 9.584C131.591 10.464 131.031 10.992 130.343 10.992H129.687V12.016H130.359C131.271 12.016 131.783 12.704 131.783 13.616C131.783 14.784 131.159 15.2 130.231 15.2C129.255 15.2 128.775 14.768 128.647 13.312H127.527C127.671 15.312 128.535 16.224 130.311 16.224C131.975 16.224 133.015 15.2 133.015 13.696C133.015 12.304 132.071 11.664 131.271 11.504V11.472C132.151 11.232 132.791 10.528 132.791 9.376C132.791 8.16 131.703 7.232 130.263 7.232C128.711 7.232 127.719 8.4 127.655 9.744H128.775ZM134.933 7.456V16H136.101V8.48H136.117L138.261 16H139.077L141.237 8.48H141.253V16H142.421V7.456H140.533L138.981 13.088C138.853 13.552 138.789 14.24 138.693 14.816H138.677C138.581 14.24 138.485 13.488 138.373 13.088L136.821 7.456H134.933ZM147.403 7.232C145.291 7.232 144.347 8.848 144.347 11.696C144.347 15.2 145.563 16.224 147.403 16.224C149.275 16.224 150.459 15.2 150.459 11.712C150.459 8.848 149.515 7.232 147.403 7.232ZM147.403 8.256C148.683 8.256 149.195 9.232 149.195 11.824C149.195 13.84 148.843 15.2 147.403 15.2C145.995 15.2 145.611 13.84 145.611 11.824C145.611 9.232 146.107 8.256 147.403 8.256ZM155.906 7.456V11.44L152.946 7.456H151.506L154.146 10.784L151.426 16H152.85L154.978 11.744L155.906 12.96V16H157.122V12.96L158.05 11.744L160.178 16H161.602L158.882 10.784L161.522 7.456H160.082L157.122 11.44V7.456H155.906ZM164.102 7.456H162.886V16H164.102V12.016H167.126V16H168.342V7.456H167.126V10.992H164.102V7.456ZM173.325 7.232C171.213 7.232 170.269 8.848 170.269 11.696C170.269 15.2 171.485 16.224 173.325 16.224C175.197 16.224 176.381 15.2 176.381 11.712C176.381 8.848 175.437 7.232 173.325 7.232ZM173.325 8.256C174.605 8.256 175.117 9.232 175.117 11.824C175.117 13.84 174.765 15.2 173.325 15.2C171.917 15.2 171.533 13.84 171.533 11.824C171.533 9.232 172.029 8.256 173.325 8.256ZM180.932 8.256C182.084 8.256 182.388 9.2 182.388 10.128H183.54C183.54 8.544 182.66 7.232 180.948 7.232C178.5 7.232 177.988 9.584 177.988 11.84C177.988 14.048 178.356 16.224 180.964 16.224C182.868 16.224 183.54 14.64 183.54 13.024H182.388C182.324 14.064 182.196 15.2 180.884 15.2C179.332 15.2 179.252 13.232 179.252 11.84C179.252 10.064 179.476 8.256 180.932 8.256ZM187.805 16V8.48H190.029V7.456H184.349V8.48H186.589V16H187.805ZM191.37 7.456V16H192.842L195.674 9.52C195.738 9.392 195.882 8.752 195.93 8.464H195.946C195.898 8.736 195.818 9.28 195.818 9.52V16H197.034V7.456H195.562L192.73 13.952C192.65 14.144 192.554 14.576 192.474 14.976H192.458C192.522 14.672 192.586 14.256 192.586 13.952V7.456H191.37ZM199.388 14.464V16H200.78V14.464H199.388ZM199.388 7.6V9.136H200.78V7.6H199.388Z" fill="black"/>
        </g>
        <circle id="ellipse" cx="13.5" cy="29.5" r="5" stroke="black"/>
        <circle id="ellipse_2" cx="149" cy="30" r="10.5" stroke="black"/>
    </g>
</svg>