 <svg width="35" height="35" viewBox="0 0 35 35" fill="none" xmlns="http://www.w3.org/2000/svg">
<path fill-rule="evenodd" clip-rule="evenodd" d="M19.4791 0.811091C15.3818 3.26868 12.2583 8.00675 11.001 13.8098C12.8748 14.3252 15.0131 14.6171 17.2807 14.6171C24.6466 14.6171 30.6549 11.5324 30.6549 7.74982C30.6549 7.53394 30.6352 7.32109 30.5964 7.11053C29.4271 5.55501 27.9853 4.22448 26.341 3.18355L26.7097 2.63167C31.6796 5.724 35 11.2359 35 17.5004C35 27.1384 27.1384 35 17.5004 35C7.86081 35 0 27.1384 0 17.5004C0 7.86081 7.86157 0 17.5004 0C19.8402 0 22.0758 0.464459 24.1198 1.3052L23.853 1.90268C22.455 1.3306 20.9819 0.962964 19.4791 0.811091ZM33.3117 12.7897C31.7313 17.8052 25.2548 21.5809 17.5452 21.5809C14.9865 21.5809 12.5647 21.2274 10.4119 20.5623C10.5616 24.7523 11.6304 28.6512 13.3514 31.9145C13.6175 31.9936 13.8866 32.0658 14.158 32.1312C12.7327 29.3056 11.9163 26.0499 11.9163 22.5858C11.9163 22.2848 11.9231 21.9876 11.9353 21.6904C13.6836 22.091 15.5741 22.3008 17.5452 22.3008C17.7376 22.3008 17.9299 22.2977 18.1214 22.2932C18.1138 22.6497 18.1138 23.01 18.1222 23.3726C18.1959 26.6208 18.8717 29.6956 20.0119 32.4231C27.7717 31.3687 33.786 24.6892 33.786 16.6482C33.786 15.3187 33.6211 14.0257 33.3117 12.7897ZM6.13144 27.3893C4.89314 24.7135 4.1938 21.6805 4.1938 18.4719C4.1938 17.996 4.20976 17.5232 4.23941 17.0557C3.3485 16.1716 2.64155 15.169 2.15733 14.0607C2.01649 14.9163 1.94556 15.7819 1.94525 16.649C1.94525 20.782 3.53322 24.5547 6.13144 27.3893ZM4.05013 8.75247C4.28274 9.55976 4.79052 10.323 5.52332 11.0155C7.03375 6.95393 9.74144 3.57959 13.1469 1.44506C9.30386 2.65066 6.05594 5.25969 4.05013 8.75247ZM16.3275 7.20631C17.0736 7.20772 17.7887 7.50473 18.3163 8.03232C18.8439 8.5599 19.1409 9.27506 19.1423 10.0212C19.1409 10.7673 18.8439 11.4824 18.3163 12.01C17.7887 12.5376 17.0736 12.8346 16.3275 12.836C15.5812 12.8348 14.8659 12.5379 14.3381 12.0103C13.8104 11.4827 13.5132 10.7674 13.5118 10.0212C13.5134 9.27499 13.8106 8.55983 14.3383 8.03227C14.866 7.50471 15.5813 7.20772 16.3275 7.20631Z" fill="white"/>
</svg>
