<svg width="385" height="33" viewBox="0 0 385 33" fill="none" xmlns="http://www.w3.org/2000/svg">
<path d="M45.0952 1.7299V13.8399C45.0952 23.0099 44.5002 23.7799 43.0302 23.7799C42.4702 23.7799 41.8052 23.7099 41.4902 23.6049V27.1399C42.4002 27.3849 43.2752 27.4549 44.3952 27.4549C48.4202 27.4549 49.8202 23.7099 49.8202 15.2749V5.5799H54.9302V26.9999H59.7252V1.7299H45.0952Z" fill="white"/>
<path d="M63.9539 9.9199V19.0899C63.9539 25.4599 67.3839 27.5949 72.1789 27.5949C77.0439 27.5949 80.2989 25.5299 80.2989 19.0899V9.9199C80.2989 3.4799 77.0439 1.2749 72.1789 1.2749C67.3839 1.2749 63.9539 3.5499 63.9539 9.9199ZM72.1789 5.1249C74.2439 5.1249 75.3989 6.7349 75.3989 9.4299V19.6849C75.3989 22.3449 74.2439 23.7449 72.1789 23.7449C69.9039 23.7449 68.8539 22.3099 68.8539 19.6849V9.3599C68.8539 6.6649 69.9039 5.1249 72.1789 5.1249Z" fill="white"/>
<path d="M89.1064 15.3099H91.8714C93.6564 15.3099 94.6714 16.9899 94.6714 19.4749C94.6714 22.3099 93.6564 23.3949 91.8714 23.3949H89.1064V15.3099ZM84.3114 1.7299V26.9999H93.5514C97.3664 26.9999 99.5714 23.7799 99.5714 18.9149C99.5714 15.3449 97.0514 11.4599 93.1314 11.4599H89.1064V5.3349H97.7164V1.7299H84.3114Z" fill="white"/>
<path d="M108.4 15.3099H111.165C112.95 15.3099 113.965 16.9899 113.965 19.4749C113.965 22.3099 112.95 23.3949 111.165 23.3949H108.4V15.3099ZM103.605 1.7299V26.9999H112.845C116.66 26.9999 118.865 23.7799 118.865 18.9149C118.865 15.3449 116.345 11.4599 112.425 11.4599H108.4V5.3349H117.01V1.7299H103.605Z" fill="white"/>
<path d="M122.899 1.7299V26.9999H128.079L135.079 8.6599H135.114C134.624 10.9349 134.519 13.5949 134.519 17.4449V26.9999H138.999V1.7299H133.819L126.819 20.1049H126.784C127.239 18.0049 127.379 14.1899 127.379 11.1799V1.7299H122.899Z" fill="white"/>
<path d="M158.444 9.9549V8.6949C158.444 4.0399 155.784 1.2749 150.884 1.2749C145.669 1.2749 143.009 4.0399 143.009 9.9549V19.1599C143.009 23.6399 144.514 27.5949 150.814 27.5949C156.799 27.5949 158.444 23.6749 158.444 19.0899V18.0049H153.649V19.3699C153.649 22.6249 152.704 23.7449 150.779 23.7449C148.749 23.7449 147.909 22.6599 147.909 19.3699V9.3949C147.909 6.2099 148.784 5.1249 150.814 5.1249C152.844 5.1249 153.649 6.2099 153.649 9.3949V9.9549H158.444Z" fill="white"/>
<path d="M172.103 5.5799H178.053V1.7299H161.358V5.5799H167.308V26.9999H172.103V5.5799Z" fill="white"/>
<path d="M185.917 15.3099H188.682C190.467 15.3099 191.482 16.9899 191.482 19.4749C191.482 22.3099 190.467 23.3949 188.682 23.3949H185.917V15.3099ZM185.917 1.7299H181.122V26.9999H190.362C194.177 26.9999 196.382 23.7799 196.382 18.9149C196.382 15.3449 193.862 11.4599 189.942 11.4599H185.917V1.7299ZM204.817 1.7299H200.022V26.9999H204.817V1.7299Z" fill="white"/>
<path d="M222.932 5.3349H225.522C227.692 5.3349 228.427 6.4199 228.427 8.5549C228.427 10.7249 227.552 11.9849 225.452 11.9849H222.932V5.3349ZM222.932 15.5899H226.012C227.797 15.5899 228.672 16.9899 228.672 19.4749C228.672 22.3099 227.797 23.3949 226.012 23.3949H222.932V15.5899ZM218.137 26.9999H227.797C231.682 26.9999 233.572 23.8849 233.572 19.5099C233.572 16.2199 232.312 14.4349 229.827 13.4199C231.927 12.9999 233.222 10.3049 233.222 7.8899C233.222 4.6699 231.437 1.7299 226.992 1.7299H218.137V26.9999Z" fill="white"/>
<path d="M246.402 1.7299V26.9999H251.197V5.5799H259.667V1.7299H246.402Z" fill="white"/>
<path d="M262.684 9.9199V19.0899C262.684 25.4599 266.114 27.5949 270.909 27.5949C275.774 27.5949 279.029 25.5299 279.029 19.0899V9.9199C279.029 3.4799 275.774 1.2749 270.909 1.2749C266.114 1.2749 262.684 3.5499 262.684 9.9199ZM270.909 5.1249C272.974 5.1249 274.129 6.7349 274.129 9.4299V19.6849C274.129 22.3449 272.974 23.7449 270.909 23.7449C268.634 23.7449 267.584 22.3099 267.584 19.6849V9.3599C267.584 6.6649 268.634 5.1249 270.909 5.1249Z" fill="white"/>
<path d="M298.302 9.9549V8.6949C298.302 4.0399 295.642 1.2749 290.742 1.2749C285.527 1.2749 282.867 4.0399 282.867 9.9549V19.1599C282.867 23.6399 284.372 27.5949 290.672 27.5949C296.657 27.5949 298.302 23.6749 298.302 19.0899V18.0049H293.507V19.3699C293.507 22.6249 292.562 23.7449 290.637 23.7449C288.607 23.7449 287.767 22.6599 287.767 19.3699V9.3949C287.767 6.2099 288.642 5.1249 290.672 5.1249C292.702 5.1249 293.507 6.2099 293.507 9.3949V9.9549H298.302Z" fill="white"/>
<path d="M305.45 1.7299V9.6049C305.45 16.5699 304.82 19.4399 303.14 23.1499H301.635V32.0749H306.255V26.9999H316.72V32.0749H321.34V23.1499H319.8V1.7299H305.45ZM315.005 5.5799V23.1499H307.9C309.37 19.9999 310.175 17.1299 310.175 11.3199V5.5799H315.005Z" fill="white"/>
<path d="M323.372 1.7299L330.302 21.7149C329.812 23.1499 329.112 23.7449 328.167 23.7449C327.537 23.7449 327.117 23.5349 326.837 23.4649V27.1399C327.677 27.4199 328.622 27.5949 329.742 27.5949C332.087 27.5949 333.592 26.1599 334.922 22.1699L341.782 1.7299H336.532L332.647 15.1349L328.762 1.7299H323.372Z" fill="white"/>
<path d="M344.512 1.7299V26.9999H348.992V4.1449H349.027L353.822 26.9999H357.252L362.047 4.1099H362.082V26.9999H366.562V1.7299H358.897L355.537 18.1449L352.177 1.7299H344.512Z" fill="white"/>
<path d="M370.778 1.7299V26.9999H384.288V23.1499H375.573V15.3099H383.518V11.4599H375.573V5.5799H384.288V1.7299H370.778Z" fill="white"/>
<path fill-rule="evenodd" clip-rule="evenodd" d="M16.1398 0.672047C12.7449 2.70834 10.1569 6.63417 9.11513 11.4424C10.6677 11.8694 12.4395 12.1113 14.3183 12.1113C20.4215 12.1113 25.3998 9.55539 25.3998 6.42128C25.3998 6.2424 25.3834 6.06605 25.3513 5.89158C24.3824 4.60272 23.1878 3.50028 21.8254 2.6378L22.1309 2.18053C26.2488 4.74274 29 9.30976 29 14.5003C29 22.4861 22.4861 29 14.5003 29C6.51324 29 0 22.4861 0 14.5003C0 6.51324 6.51387 0 14.5003 0C16.439 0 18.2914 0.384838 19.985 1.08145L19.7639 1.5765C18.6056 1.1025 17.385 0.797884 16.1398 0.672047V0.672047ZM27.6011 10.5972C26.2917 14.7529 20.9254 17.8813 14.5375 17.8813C12.4174 17.8813 10.4107 17.5885 8.627 17.0373C8.75108 20.509 9.63664 23.7395 11.0626 26.4435C11.2831 26.509 11.506 26.5688 11.7309 26.623C10.5499 24.2818 9.87347 21.5842 9.87347 18.714C9.87347 18.4646 9.87914 18.2183 9.88921 17.972C11.3379 18.304 12.9043 18.4778 14.5375 18.4778C14.6968 18.4778 14.8562 18.4753 15.0149 18.4715C15.0086 18.7669 15.0086 19.0654 15.0155 19.3659C15.0766 22.0572 15.6366 24.6049 16.5813 26.8648C23.0108 25.9912 27.9941 20.4568 27.9941 13.7943C27.9941 12.6927 27.8575 11.6213 27.6011 10.5972ZM5.08034 22.694C4.05432 20.4769 3.47486 17.9638 3.47486 15.3053C3.47486 14.911 3.48809 14.5192 3.51265 14.1319C2.77447 13.3993 2.18871 12.5686 1.7875 11.6503C1.67081 12.3592 1.61204 13.0764 1.61178 13.7949C1.61178 17.2194 2.92752 20.3453 5.08034 22.694V22.694ZM3.35582 7.25205C3.54855 7.92094 3.96929 8.55331 4.57646 9.1271C5.82797 5.76183 8.07148 2.96595 10.8932 1.19734C7.70891 2.19626 5.01778 4.35803 3.35582 7.25205V7.25205ZM13.5285 5.97094C14.1467 5.97211 14.7392 6.21821 15.1764 6.65535C15.6135 7.09249 15.8596 7.68505 15.8608 8.30326C15.8596 8.92147 15.6135 9.51403 15.1764 9.95117C14.7392 10.3883 14.1467 10.6344 13.5285 10.6356C12.9101 10.6346 12.3174 10.3886 11.8801 9.9514C11.4429 9.51424 11.1967 8.92158 11.1955 8.30326C11.1968 7.68499 11.4431 7.09243 11.8803 6.65531C12.3176 6.21819 12.9102 5.97211 13.5285 5.97094V5.97094Z" fill="white"/>
</svg>
