<svg width="206" height="40" viewBox="290 -2 226 40" fill="none" xmlns="http://www.w3.org/2000/svg">
    <path d="M5.148 1.232V16.456C5.148 27.984 4.4 28.952 2.552 28.952C1.848 28.952 1.012 28.864 0.616 28.732V33.176C1.76 33.484 2.86 33.572 4.268 33.572C9.328 33.572 11.088 28.864 11.088 18.26V6.072H17.512V33H23.54V1.232H5.148ZM28.8561 11.528V23.056C28.8561 31.064 33.1681 33.748 39.1961 33.748C45.3121 33.748 49.4041 31.152 49.4041 23.056V11.528C49.4041 3.432 45.3121 0.659999 39.1961 0.659999C33.1681 0.659999 28.8561 3.52 28.8561 11.528ZM39.1961 5.5C41.7921 5.5 43.2441 7.524 43.2441 10.912V23.804C43.2441 27.148 41.7921 28.908 39.1961 28.908C36.3361 28.908 35.0161 27.104 35.0161 23.804V10.824C35.0161 7.436 36.3361 5.5 39.1961 5.5ZM60.4763 18.304H63.9523C66.1963 18.304 67.4723 20.416 67.4723 23.54C67.4723 27.104 66.1963 28.468 63.9523 28.468H60.4763V18.304ZM54.4483 1.232V33H66.0643C70.8603 33 73.6323 28.952 73.6323 22.836C73.6323 18.348 70.4643 13.464 65.5363 13.464H60.4763V5.764H71.3003V1.232H54.4483ZM84.7313 18.304H88.2073C90.4513 18.304 91.7273 20.416 91.7273 23.54C91.7273 27.104 90.4513 28.468 88.2073 28.468H84.7313V18.304ZM78.7033 1.232V33H90.3193C95.1153 33 97.8873 28.952 97.8873 22.836C97.8873 18.348 94.7193 13.464 89.7913 13.464H84.7313V5.764H95.5553V1.232H78.7033ZM102.958 1.232V33H109.47L118.27 9.944H118.314C117.698 12.804 117.566 16.148 117.566 20.988V33H123.198V1.232H116.686L107.886 24.332H107.842C108.414 21.692 108.59 16.896 108.59 13.112V1.232H102.958ZM133.871 10.384C133.871 7.524 135.103 5.5 137.479 5.5C140.031 5.5 140.823 7.832 140.823 9.944C140.823 12.76 139.107 13.992 136.863 13.992H135.587V18.524H136.863C139.371 18.524 141.263 19.888 141.263 23.628C141.263 26.928 140.207 28.908 137.303 28.908C134.267 28.908 133.387 26.752 133.387 24.552H127.535C127.535 31.372 132.463 33.748 137.655 33.748C143.947 33.748 147.423 30.58 147.423 24.2C147.423 19.404 145.267 16.808 142.099 16.016C145.003 15.268 146.983 12.408 146.983 9.108C146.983 2.684 141.747 0.659999 137.479 0.659999C131.495 0.659999 128.019 4.84 128.019 10.384H133.871ZM152.5 1.232V33H158.132V4.268H158.176L164.204 33H168.516L174.544 4.224H174.588V33H180.22V1.232H170.584L166.36 21.868L162.136 1.232H152.5ZM202.998 5.764H206.254C208.982 5.764 209.906 7.128 209.906 9.812C209.906 12.54 208.806 14.124 206.166 14.124H202.998V5.764ZM202.998 18.656H206.87C209.114 18.656 210.214 20.416 210.214 23.54C210.214 27.104 209.114 28.468 206.87 28.468H202.998V18.656ZM196.97 33H209.114C213.998 33 216.374 29.084 216.374 23.584C216.374 19.448 214.79 17.204 211.666 15.928C214.306 15.4 215.934 12.012 215.934 8.976C215.934 4.928 213.69 1.232 208.102 1.232H196.97V33ZM232.504 1.232V33H238.532V6.072H249.18V1.232H232.504ZM252.972 11.528V23.056C252.972 31.064 257.284 33.748 263.312 33.748C269.428 33.748 273.52 31.152 273.52 23.056V11.528C273.52 3.432 269.428 0.659999 263.312 0.659999C257.284 0.659999 252.972 3.52 252.972 11.528ZM263.312 5.5C265.908 5.5 267.36 7.524 267.36 10.912V23.804C267.36 27.148 265.908 28.908 263.312 28.908C260.452 28.908 259.132 27.104 259.132 23.804V10.824C259.132 7.436 260.452 5.5 263.312 5.5ZM297.749 11.572V9.988C297.749 4.136 294.405 0.659999 288.245 0.659999C281.689 0.659999 278.345 4.136 278.345 11.572V23.144C278.345 28.776 280.237 33.748 288.157 33.748C295.681 33.748 297.749 28.82 297.749 23.056V21.692H291.721V23.408C291.721 27.5 290.533 28.908 288.113 28.908C285.561 28.908 284.505 27.544 284.505 23.408V10.868C284.505 6.864 285.605 5.5 288.157 5.5C290.709 5.5 291.721 6.864 291.721 10.868V11.572H297.749ZM306.736 1.232V11.132C306.736 19.888 305.944 23.496 303.832 28.16H301.94V39.38H307.748V33H320.904V39.38H326.712V28.16H324.776V1.232H306.736ZM318.748 6.072V28.16H309.816C311.664 24.2 312.676 20.592 312.676 13.288V6.072H318.748ZM329.266 1.232L337.978 26.356C337.362 28.16 336.482 28.908 335.294 28.908C334.502 28.908 333.974 28.644 333.622 28.556V33.176C334.678 33.528 335.866 33.748 337.274 33.748C340.222 33.748 342.114 31.944 343.786 26.928L352.41 1.232H345.81L340.926 18.084L336.042 1.232H329.266ZM355.841 1.232V33H361.473V4.268H361.517L367.545 33H371.857L377.885 4.224H377.929V33H383.561V1.232H373.925L369.701 21.868L365.477 1.232H355.841ZM388.862 1.232V33H405.846V28.16H394.89V18.304H404.878V13.464H394.89V6.072H405.846V1.232H388.862Z" fill="white"/>
</svg>
