<svg width="330" height="46" viewBox="0 0 330 46" fill="none" xmlns="http://www.w3.org/2000/svg">
<path d="M7.50998 13.4507H10.0861C12.2446 13.4507 12.9756 14.5299 12.9756 16.6535C12.9756 18.8119 12.1053 20.0652 10.0165 20.0652H7.50998V13.4507ZM7.50998 23.6509H10.5735C12.349 23.6509 13.2193 25.0435 13.2193 27.5152C13.2193 30.335 12.349 31.4142 10.5735 31.4142H7.50998V23.6509ZM2.7406 35H12.349C16.2132 35 18.0931 31.9016 18.0931 27.55C18.0931 24.2776 16.8399 22.5021 14.3681 21.4925C16.4569 21.0748 17.745 18.3942 17.745 15.9921C17.745 12.7893 15.9695 9.86498 11.5483 9.86498H2.7406V35Z" fill="white"/>
<path d="M46.0333 18.046V16.7928C46.0333 12.1626 43.3875 9.41241 38.5137 9.41241C33.3265 9.41241 30.6808 12.1626 30.6808 18.046V27.2019C30.6808 31.6579 32.1777 35.5918 38.4441 35.5918C44.3971 35.5918 46.0333 31.6927 46.0333 27.1322V26.053H41.2639V27.4107C41.2639 30.6483 40.324 31.7624 38.4092 31.7624C36.3901 31.7624 35.5546 30.6832 35.5546 27.4107V17.489C35.5546 14.321 36.4249 13.2418 38.4441 13.2418C40.4632 13.2418 41.2639 14.321 41.2639 17.489V18.046H46.0333Z" fill="white"/>
<path d="M49.8714 18.0112V27.1322C49.8714 33.4682 53.2831 35.5918 58.0525 35.5918C62.8915 35.5918 66.1291 33.5378 66.1291 27.1322V18.0112C66.1291 11.6056 62.8915 9.41241 58.0525 9.41241C53.2831 9.41241 49.8714 11.6753 49.8714 18.0112ZM58.0525 13.2418C60.1064 13.2418 61.2553 14.8432 61.2553 17.5238V27.7241C61.2553 30.3698 60.1064 31.7624 58.0525 31.7624C55.7896 31.7624 54.7452 30.335 54.7452 27.7241V17.4542C54.7452 14.7736 55.7896 13.2418 58.0525 13.2418Z" fill="white"/>
<path d="M74.8895 13.4507H77.4656C79.624 13.4507 80.3551 14.5299 80.3551 16.6535C80.3551 18.8119 79.4848 20.0652 77.396 20.0652H74.8895V13.4507ZM74.8895 23.6509H77.953C79.7285 23.6509 80.5988 25.0435 80.5988 27.5152C80.5988 30.335 79.7285 31.4142 77.953 31.4142H74.8895V23.6509ZM70.1201 35H79.7285C83.5927 35 85.4726 31.9016 85.4726 27.55C85.4726 24.2776 84.2193 22.5021 81.7476 21.4925C83.8364 21.0748 85.1245 18.3942 85.1245 15.9921C85.1245 12.7893 83.349 9.86498 78.9278 9.86498H70.1201V35Z" fill="white"/>
<path d="M89.1748 9.86498V35H102.613V31.1705H93.9441V23.3724H101.847V19.543H93.9441V13.6944H102.613V9.86498H89.1748Z" fill="white"/>
<path d="M115.865 13.6944H121.783V9.86498H105.178V13.6944H111.096V35H115.865V13.6944Z" fill="white"/>
<path d="M124.836 9.86498V35H138.274V31.1705H129.606V23.3724H137.508V19.543H129.606V13.6944H138.274V9.86498H124.836Z" fill="white"/>
<path d="M159.96 9.86498V12.7196H158.567C154.494 12.7196 150.351 15.7484 150.351 22.3629C150.351 29.1514 154.459 31.9016 158.567 31.9016H159.96V35H164.729V31.9016H166.122C170.23 31.9016 174.337 29.1514 174.337 22.3629C174.337 15.7484 170.195 12.7196 166.122 12.7196H164.729V9.86498H159.96ZM159.96 28.1766H158.846C156.513 28.1766 155.225 26.0878 155.225 22.3629C155.225 18.8467 156.583 16.4446 158.846 16.4446H159.96V28.1766ZM164.729 16.4446H165.843C168.106 16.4446 169.464 18.8467 169.464 22.3629C169.464 26.0878 168.176 28.1766 165.843 28.1766H164.729V16.4446Z" fill="white"/>
<path d="M177.989 9.86498V35H191.427V31.1705H182.758V23.3724H190.661V19.543H182.758V13.6944H191.427V9.86498H177.989Z" fill="white"/>
<path d="M198.204 9.86498V17.6979C198.204 24.6257 197.577 27.4804 195.906 31.1705H194.409V40.0479H199.005V35H209.414V40.0479H214.009V31.1705H212.477V9.86498H198.204ZM207.708 13.6944V31.1705H200.641C202.103 28.0374 202.904 25.1827 202.904 19.4037V13.6944H207.708Z" fill="white"/>
<path d="M217.492 9.86498V35H230.93V31.1705H222.261V23.3724H230.164V19.543H222.261V13.6944H230.93V9.86498H217.492Z" fill="white"/>
<path d="M239.378 24.7649H243.556C247.629 24.7649 250.24 21.3533 250.24 17.2105C250.24 13.1722 247.699 9.86498 243.625 9.86498H234.609V35H239.378V24.7649ZM239.378 13.59H241.78C244.182 13.59 245.366 14.9129 245.366 17.2802C245.366 19.6823 244.182 21.04 241.78 21.04H239.378V13.59Z" fill="white"/>
<path d="M251.111 35H256.229L257.725 28.4551H263.121L264.305 35H269.457L263.887 9.86498H257.482L251.111 35ZM258.317 24.7301L260.615 13.033L262.53 24.7301H258.317Z" fill="white"/>
<path d="M276.91 9.86498H272.14V35H285.056V40.0827H289.512V31.1705H287.98V9.86498H283.211V31.1705H276.91V9.86498Z" fill="white"/>
<path d="M292.929 9.86498V35H298.081L305.044 16.758H305.078C304.591 19.0208 304.487 21.6666 304.487 25.496V35H308.943V9.86498H303.79L296.828 28.1418H296.793C297.246 26.053 297.385 22.2584 297.385 19.2645V9.86498H292.929Z" fill="white"/>
<path d="M313.105 9.86498V35H318.258L325.22 16.758H325.255C324.768 19.0208 324.663 21.6666 324.663 25.496V35H329.119V9.86498H323.967L317.004 28.1418H316.97C317.422 26.053 317.561 22.2584 317.561 19.2645V9.86498H313.105Z" fill="white"/>
</svg>
