<svg width="5" height="15" viewBox="0 0 5 15" fill="none" xmlns="http://www.w3.org/2000/svg">
  <path d="M0.0966797 13.6846C0.137695 13.333 0.193359 12.9082 0.263672 12.4102C0.333984 11.9062 0.413086 11.3408 0.500977 10.7139C0.594727 10.0811 0.694336 9.38965 0.799805 8.63965C0.905273 7.88965 1.0166 7.09277 1.13379 6.24902L0 5.73926L0.140625 4.99219L3.27832 4.53516L3.74414 4.74609L2.5752 12.9199C2.51074 13.3652 2.5957 13.5879 2.83008 13.5879C2.92969 13.5879 3.04395 13.5527 3.17285 13.4824C3.30176 13.4121 3.47754 13.2832 3.7002 13.0957L3.95508 13.667C3.9082 13.7314 3.81738 13.834 3.68262 13.9746C3.55371 14.1152 3.38672 14.2559 3.18164 14.3965C2.97656 14.5371 2.73633 14.6602 2.46094 14.7656C2.19141 14.877 1.88965 14.9326 1.55566 14.9326C1.0459 14.9326 0.662109 14.8271 0.404297 14.6162C0.152344 14.3994 0.0498047 14.0889 0.0966797 13.6846ZM2.75977 2.80371C2.58984 2.80371 2.42871 2.76855 2.27637 2.69824C2.12988 2.62793 1.99805 2.53418 1.88086 2.41699C1.76953 2.2998 1.68164 2.16504 1.61719 2.0127C1.55273 1.86035 1.52051 1.70215 1.52051 1.53809C1.52637 1.32715 1.56738 1.12793 1.64355 0.94043C1.72559 0.75293 1.83398 0.591797 1.96875 0.457031C2.10352 0.316406 2.26172 0.205078 2.44336 0.123047C2.63086 0.0410156 2.83301 0 3.0498 0C3.25488 0 3.43652 0.0351562 3.59473 0.105469C3.75879 0.169922 3.89648 0.260742 4.00781 0.37793C4.125 0.489258 4.21289 0.618164 4.27148 0.764648C4.33008 0.911133 4.35938 1.06348 4.35938 1.22168C4.35352 1.43262 4.31543 1.63477 4.24512 1.82812C4.1748 2.02148 4.06934 2.19141 3.92871 2.33789C3.79395 2.47852 3.62695 2.59277 3.42773 2.68066C3.23438 2.7627 3.01172 2.80371 2.75977 2.80371Z" fill="white"/>
</svg>
