<svg width="365" height="33" viewBox="0 0 365 33" fill="none" xmlns="http://www.w3.org/2000/svg">
<path d="M45.0952 1.7299V13.8399C45.0952 23.0099 44.5002 23.7799 43.0302 23.7799C42.4702 23.7799 41.8052 23.7099 41.4902 23.6049V27.1399C42.4002 27.3849 43.2752 27.4549 44.3952 27.4549C48.4202 27.4549 49.8202 23.7099 49.8202 15.2749V5.5799H54.9302V26.9999H59.7252V1.7299H45.0952Z" fill="white"/>
<path d="M63.9539 9.9199V19.0899C63.9539 25.4599 67.3839 27.5949 72.1789 27.5949C77.0439 27.5949 80.2989 25.5299 80.2989 19.0899V9.9199C80.2989 3.4799 77.0439 1.2749 72.1789 1.2749C67.3839 1.2749 63.9539 3.5499 63.9539 9.9199ZM72.1789 5.1249C74.2439 5.1249 75.3989 6.7349 75.3989 9.4299V19.6849C75.3989 22.3449 74.2439 23.7449 72.1789 23.7449C69.9039 23.7449 68.8539 22.3099 68.8539 19.6849V9.3599C68.8539 6.6649 69.9039 5.1249 72.1789 5.1249Z" fill="white"/>
<path d="M89.1064 15.3099H91.8714C93.6564 15.3099 94.6714 16.9899 94.6714 19.4749C94.6714 22.3099 93.6564 23.3949 91.8714 23.3949H89.1064V15.3099ZM84.3114 1.7299V26.9999H93.5514C97.3664 26.9999 99.5714 23.7799 99.5714 18.9149C99.5714 15.3449 97.0514 11.4599 93.1314 11.4599H89.1064V5.3349H97.7164V1.7299H84.3114Z" fill="white"/>
<path d="M108.4 15.3099H111.165C112.95 15.3099 113.965 16.9899 113.965 19.4749C113.965 22.3099 112.95 23.3949 111.165 23.3949H108.4V15.3099ZM103.605 1.7299V26.9999H112.845C116.66 26.9999 118.865 23.7799 118.865 18.9149C118.865 15.3449 116.345 11.4599 112.425 11.4599H108.4V5.3349H117.01V1.7299H103.605Z" fill="white"/>
<path d="M122.899 1.7299V26.9999H128.079L135.079 8.6599H135.114C134.624 10.9349 134.519 13.5949 134.519 17.4449V26.9999H138.999V1.7299H133.819L126.819 20.1049H126.784C127.239 18.0049 127.379 14.1899 127.379 11.1799V1.7299H122.899Z" fill="white"/>
<path d="M147.489 9.0099C147.489 6.7349 148.469 5.1249 150.359 5.1249C152.389 5.1249 153.019 6.9799 153.019 8.6599C153.019 10.8999 151.654 11.8799 149.869 11.8799H148.854V15.4849H149.869C151.864 15.4849 153.369 16.5699 153.369 19.5449C153.369 22.1699 152.529 23.7449 150.219 23.7449C147.804 23.7449 147.104 22.0299 147.104 20.2799H142.449C142.449 25.7049 146.369 27.5949 150.499 27.5949C155.504 27.5949 158.269 25.0749 158.269 19.9999C158.269 16.1849 156.554 14.1199 154.034 13.4899C156.344 12.8949 157.919 10.6199 157.919 7.9949C157.919 2.8849 153.754 1.2749 150.359 1.2749C145.599 1.2749 142.834 4.5999 142.834 9.0099H147.489Z" fill="white"/>
<path d="M162.307 1.7299V26.9999H166.787V4.1449H166.822L171.617 26.9999H175.047L179.842 4.1099H179.877V26.9999H184.357V1.7299H176.692L173.332 18.1449L169.972 1.7299H162.307Z" fill="white"/>
<path d="M202.476 5.3349H205.066C207.236 5.3349 207.971 6.4199 207.971 8.5549C207.971 10.7249 207.096 11.9849 204.996 11.9849H202.476V5.3349ZM202.476 15.5899H205.556C207.341 15.5899 208.216 16.9899 208.216 19.4749C208.216 22.3099 207.341 23.3949 205.556 23.3949H202.476V15.5899ZM197.681 26.9999H207.341C211.226 26.9999 213.116 23.8849 213.116 19.5099C213.116 16.2199 211.856 14.4349 209.371 13.4199C211.471 12.9999 212.766 10.3049 212.766 7.8899C212.766 4.6699 210.981 1.7299 206.536 1.7299H197.681V26.9999Z" fill="white"/>
<path d="M225.947 1.7299V26.9999H230.742V5.5799H239.212V1.7299H225.947Z" fill="white"/>
<path d="M242.228 9.9199V19.0899C242.228 25.4599 245.658 27.5949 250.453 27.5949C255.318 27.5949 258.573 25.5299 258.573 19.0899V9.9199C258.573 3.4799 255.318 1.2749 250.453 1.2749C245.658 1.2749 242.228 3.5499 242.228 9.9199ZM250.453 5.1249C252.518 5.1249 253.673 6.7349 253.673 9.4299V19.6849C253.673 22.3449 252.518 23.7449 250.453 23.7449C248.178 23.7449 247.128 22.3099 247.128 19.6849V9.3599C247.128 6.6649 248.178 5.1249 250.453 5.1249Z" fill="white"/>
<path d="M277.846 9.9549V8.6949C277.846 4.0399 275.186 1.2749 270.286 1.2749C265.071 1.2749 262.411 4.0399 262.411 9.9549V19.1599C262.411 23.6399 263.916 27.5949 270.216 27.5949C276.201 27.5949 277.846 23.6749 277.846 19.0899V18.0049H273.051V19.3699C273.051 22.6249 272.106 23.7449 270.181 23.7449C268.151 23.7449 267.311 22.6599 267.311 19.3699V9.3949C267.311 6.2099 268.186 5.1249 270.216 5.1249C272.246 5.1249 273.051 6.2099 273.051 9.3949V9.9549H277.846Z" fill="white"/>
<path d="M284.995 1.7299V9.6049C284.995 16.5699 284.365 19.4399 282.685 23.1499H281.18V32.0749H285.8V26.9999H296.265V32.0749H300.885V23.1499H299.345V1.7299H284.995ZM294.55 5.5799V23.1499H287.445C288.915 19.9999 289.72 17.1299 289.72 11.3199V5.5799H294.55Z" fill="white"/>
<path d="M302.916 1.7299L309.846 21.7149C309.356 23.1499 308.656 23.7449 307.711 23.7449C307.081 23.7449 306.661 23.5349 306.381 23.4649V27.1399C307.221 27.4199 308.166 27.5949 309.286 27.5949C311.631 27.5949 313.136 26.1599 314.466 22.1699L321.326 1.7299H316.076L312.191 15.1349L308.306 1.7299H302.916Z" fill="white"/>
<path d="M324.056 1.7299V26.9999H328.536V4.1449H328.571L333.366 26.9999H336.796L341.591 4.1099H341.626V26.9999H346.106V1.7299H338.441L335.081 18.1449L331.721 1.7299H324.056Z" fill="white"/>
<path d="M350.322 1.7299V26.9999H363.832V23.1499H355.117V15.3099H363.062V11.4599H355.117V5.5799H363.832V1.7299H350.322Z" fill="white"/>
<path fill-rule="evenodd" clip-rule="evenodd" d="M16.1398 0.672047C12.7449 2.70834 10.1569 6.63417 9.11513 11.4424C10.6677 11.8694 12.4395 12.1113 14.3183 12.1113C20.4215 12.1113 25.3998 9.55539 25.3998 6.42128C25.3998 6.2424 25.3834 6.06605 25.3513 5.89158C24.3824 4.60272 23.1878 3.50028 21.8254 2.6378L22.1309 2.18053C26.2488 4.74274 29 9.30976 29 14.5003C29 22.4861 22.4861 29 14.5003 29C6.51324 29 0 22.4861 0 14.5003C0 6.51324 6.51387 0 14.5003 0C16.439 0 18.2914 0.384838 19.985 1.08145L19.7639 1.5765C18.6056 1.1025 17.385 0.797884 16.1398 0.672047ZM27.6011 10.5972C26.2917 14.7529 20.9254 17.8813 14.5375 17.8813C12.4174 17.8813 10.4107 17.5885 8.627 17.0373C8.75108 20.509 9.63665 23.7395 11.0626 26.4435C11.2831 26.509 11.506 26.5688 11.7309 26.623C10.5499 24.2818 9.87347 21.5842 9.87347 18.714C9.87347 18.4646 9.87914 18.2183 9.88921 17.972C11.3379 18.304 12.9043 18.4778 14.5375 18.4778C14.6968 18.4778 14.8562 18.4753 15.0149 18.4715C15.0086 18.7669 15.0086 19.0654 15.0155 19.3659C15.0766 22.0572 15.6366 24.6049 16.5813 26.8648C23.0108 25.9912 27.9941 20.4568 27.9941 13.7943C27.9941 12.6927 27.8575 11.6213 27.6011 10.5972ZM5.08034 22.694C4.05432 20.4769 3.47486 17.9638 3.47486 15.3053C3.47486 14.911 3.48809 14.5192 3.51265 14.1319C2.77447 13.3993 2.18871 12.5686 1.7875 11.6503C1.67081 12.3592 1.61204 13.0764 1.61178 13.7949C1.61178 17.2194 2.92752 20.3453 5.08034 22.694ZM3.35582 7.25205C3.54855 7.92094 3.96929 8.55331 4.57646 9.1271C5.82797 5.76183 8.07148 2.96595 10.8932 1.19734C7.70891 2.19626 5.01778 4.35803 3.35582 7.25205ZM13.5285 5.97094C14.1467 5.97211 14.7392 6.21821 15.1764 6.65535C15.6135 7.09249 15.8596 7.68505 15.8608 8.30326C15.8596 8.92147 15.6135 9.51403 15.1764 9.95117C14.7392 10.3883 14.1467 10.6344 13.5285 10.6356C12.9101 10.6346 12.3174 10.3886 11.8801 9.9514C11.4429 9.51424 11.1967 8.92158 11.1955 8.30326C11.1968 7.68499 11.4431 7.09243 11.8803 6.65531C12.3176 6.21819 12.9102 5.97211 13.5285 5.97094Z" fill="white"/>
</svg>
