<svg width="326" height="46" viewBox="220 0 326 46" fill="none" xmlns="http://www.w3.org/2000/svg">
    <path d="M224.51 13.4507H227.086C229.245 13.4507 229.976 14.5299 229.976 16.6535C229.976 18.8119 229.105 20.0652 227.017 20.0652H224.51V13.4507ZM224.51 23.6509H227.574C229.349 23.6509 230.219 25.0435 230.219 27.5152C230.219 30.335 229.349 31.4142 227.574 31.4142H224.51V23.6509ZM219.741 35H229.349C233.213 35 235.093 31.9016 235.093 27.55C235.093 24.2776 233.84 22.5021 231.368 21.4925C233.457 21.0748 234.745 18.3942 234.745 15.9921C234.745 12.7893 232.97 9.86498 228.548 9.86498H219.741V35Z" fill="white"/>
    <path d="M263.033 18.046V16.7928C263.033 12.1626 260.388 9.41241 255.514 9.41241C250.327 9.41241 247.681 12.1626 247.681 18.046V27.2019C247.681 31.6579 249.178 35.5918 255.444 35.5918C261.397 35.5918 263.033 31.6927 263.033 27.1322V26.053H258.264V27.4107C258.264 30.6483 257.324 31.7624 255.409 31.7624C253.39 31.7624 252.555 30.6832 252.555 27.4107V17.489C252.555 14.321 253.425 13.2418 255.444 13.2418C257.463 13.2418 258.264 14.321 258.264 17.489V18.046H263.033Z" fill="white"/>
    <path d="M266.871 18.0112V27.1322C266.871 33.4682 270.283 35.5918 275.052 35.5918C279.891 35.5918 283.129 33.5378 283.129 27.1322V18.0112C283.129 11.6056 279.891 9.41241 275.052 9.41241C270.283 9.41241 266.871 11.6753 266.871 18.0112ZM275.052 13.2418C277.106 13.2418 278.255 14.8432 278.255 17.5238V27.7241C278.255 30.3698 277.106 31.7624 275.052 31.7624C272.79 31.7624 271.745 30.335 271.745 27.7241V17.4542C271.745 14.7736 272.79 13.2418 275.052 13.2418Z" fill="white"/>
    <path d="M291.889 13.4507H294.466C296.624 13.4507 297.355 14.5299 297.355 16.6535C297.355 18.8119 296.485 20.0652 294.396 20.0652H291.889V13.4507ZM291.889 23.6509H294.953C296.728 23.6509 297.599 25.0435 297.599 27.5152C297.599 30.335 296.728 31.4142 294.953 31.4142H291.889V23.6509ZM287.12 35H296.728C300.593 35 302.473 31.9016 302.473 27.55C302.473 24.2776 301.219 22.5021 298.748 21.4925C300.836 21.0748 302.124 18.3942 302.124 15.9921C302.124 12.7893 300.349 9.86498 295.928 9.86498H287.12V35Z" fill="white"/>
    <path d="M306.175 9.86498V35H319.613V31.1705H310.944V23.3724H318.847V19.543H310.944V13.6944H319.613V9.86498H306.175Z" fill="white"/>
    <path d="M332.865 13.6944H338.783V9.86498H322.178V13.6944H328.096V35H332.865V13.6944Z" fill="white"/>
    <path d="M341.836 9.86498V35H355.274V31.1705H346.606V23.3724H354.508V19.543H346.606V13.6944H355.274V9.86498H341.836Z" fill="white"/>
    <path d="M376.96 9.86498V12.7196H375.567C371.494 12.7196 367.351 15.7484 367.351 22.3629C367.351 29.1514 371.459 31.9016 375.567 31.9016H376.96V35H381.729V31.9016H383.122C387.23 31.9016 391.337 29.1514 391.337 22.3629C391.337 15.7484 387.195 12.7196 383.122 12.7196H381.729V9.86498H376.96ZM376.96 28.1766H375.846C373.513 28.1766 372.225 26.0878 372.225 22.3629C372.225 18.8467 373.583 16.4446 375.846 16.4446H376.96V28.1766ZM381.729 16.4446H382.843C385.106 16.4446 386.464 18.8467 386.464 22.3629C386.464 26.0878 385.176 28.1766 382.843 28.1766H381.729V16.4446Z" fill="white"/>
    <path d="M394.989 9.86498V35H408.427V31.1705H399.758V23.3724H407.661V19.543H399.758V13.6944H408.427V9.86498H394.989Z" fill="white"/>
    <path d="M415.204 9.86498V17.6979C415.204 24.6257 414.577 27.4804 412.906 31.1705H411.409V40.0479H416.005V35H426.414V40.0479H431.009V31.1705H429.477V9.86498H415.204ZM424.708 13.6944V31.1705H417.641C419.103 28.0374 419.904 25.1827 419.904 19.4037V13.6944H424.708Z" fill="white"/>
    <path d="M434.492 9.86498V35H447.93V31.1705H439.261V23.3724H447.164V19.543H439.261V13.6944H447.93V9.86498H434.492Z" fill="white"/>
    <path d="M456.378 24.7649H460.556C464.629 24.7649 467.24 21.3533 467.24 17.2105C467.24 13.1722 464.699 9.86498 460.625 9.86498H451.609V35H456.378V24.7649ZM456.378 13.59H458.78C461.182 13.59 462.366 14.9129 462.366 17.2802C462.366 19.6823 461.182 21.04 458.78 21.04H456.378V13.59Z" fill="white"/>
    <path d="M468.111 35H473.229L474.725 28.4551H480.121L481.305 35H486.457L480.887 9.86498H474.482L468.111 35ZM475.317 24.7301L477.615 13.033L479.53 24.7301H475.317Z" fill="white"/>
    <path d="M493.91 9.86498H489.14V35H502.056V40.0827H506.512V31.1705H504.98V9.86498H500.211V31.1705H493.91V9.86498Z" fill="white"/>
    <path d="M509.929 9.86498V35H515.081L522.044 16.758H522.078C521.591 19.0208 521.487 21.6666 521.487 25.496V35H525.943V9.86498H520.79L513.828 28.1418H513.793C514.246 26.053 514.385 22.2584 514.385 19.2645V9.86498H509.929Z" fill="white"/>
    <path d="M530.105 9.86498V35H535.258L542.22 16.758H542.255C541.768 19.0208 541.663 21.6666 541.663 25.496V35H546.119V9.86498H540.967L534.004 28.1418H533.97C534.422 26.053 534.561 22.2584 534.561 19.2645V9.86498H530.105Z" fill="white"/>
</svg>
