<svg width="205" height="46" viewBox="0 0 205 46" fill="none" xmlns="http://www.w3.org/2000/svg">
    <path fill-rule="evenodd" clip-rule="evenodd" d="M14.4585 18.15C16.1109 10.5232 20.2161 4.29599 25.6011 1.066C27.5762 1.26561 29.5124 1.74879 31.3497 2.50066L31.7004 1.7154C29.0139 0.610432 26.0756 0 23.0005 0C10.3323 0 0 10.3313 0 23.0005C0 35.6677 10.3313 46 23.0005 46C35.6677 46 46 35.6677 46 23.0005C46 14.7672 41.6361 7.52297 35.1042 3.45876L34.6196 4.18409C36.7806 5.55217 38.6756 7.30087 40.2124 9.34527C40.2634 9.62201 40.2893 9.90174 40.2893 10.1855C40.2893 15.1568 32.3927 19.211 22.7118 19.211C19.7316 19.211 16.9212 18.8274 14.4585 18.15ZM23.0594 28.3635C33.192 28.3635 41.704 23.4011 43.7811 16.8093C44.1877 18.4338 44.4045 20.1332 44.4045 21.8805C44.4045 32.4487 36.4999 41.2275 26.3014 42.6132C24.8028 39.0285 23.9146 34.9873 23.8177 30.7183C23.8067 30.2417 23.8067 29.7682 23.8167 29.2996C23.565 29.3056 23.3122 29.3096 23.0594 29.3096C20.4689 29.3096 17.9842 29.0339 15.6863 28.5074C15.6704 28.898 15.6614 29.2886 15.6614 29.6842C15.6614 34.237 16.7344 38.516 18.6076 42.2295C18.2509 42.1436 17.8973 42.0487 17.5476 41.9448C15.2857 37.6558 13.881 32.5316 13.6842 27.0247C16.5136 27.8989 19.6966 28.3635 23.0594 28.3635ZM5.51185 24.2773C5.51185 28.4944 6.43099 32.4806 8.05847 35.9973C4.64366 32.2718 2.55661 27.3135 2.55661 21.8815C2.55702 20.7419 2.65024 19.6042 2.83535 18.4797C3.47175 19.9364 4.40089 21.2541 5.57179 22.416C5.53283 23.0305 5.51185 23.6519 5.51185 24.2773ZM7.25921 14.4775C6.29611 13.5673 5.62874 12.5643 5.32302 11.5032C7.95923 6.91273 12.2279 3.48372 17.2788 1.89923C12.803 4.7046 9.24436 9.13945 7.25921 14.4775Z" fill="white"/>
    <path d="M24.0729 10.5568C23.3795 9.86336 22.4396 9.473 21.4589 9.47115C20.4782 9.473 19.5382 9.86333 18.8447 10.5567C18.1511 11.2501 17.7605 12.19 17.7584 13.1707C17.7603 14.1515 18.1508 15.0915 18.8444 15.785C19.538 16.4784 20.4782 16.8686 21.4589 16.8702C22.4396 16.8684 23.3795 16.478 24.0729 15.7846C24.7663 15.0912 25.1566 14.1513 25.1585 13.1707C25.1566 12.1901 24.7663 11.2502 24.0729 10.5568Z" fill="white"/>
    <path fill-rule="evenodd" clip-rule="evenodd" d="M84.8311 18.0112V27.1322C84.8311 33.4682 88.2428 35.5918 93.0122 35.5918C97.8512 35.5918 101.089 33.5378 101.089 27.1322V18.0112C101.089 11.6056 97.8512 9.41241 93.0122 9.41241C88.2428 9.41241 84.8311 11.6753 84.8311 18.0112ZM93.0122 13.2418C95.0661 13.2418 96.215 14.8432 96.215 17.5238V27.7241C96.215 30.3698 95.0661 31.7624 93.0122 31.7624C90.7493 31.7624 89.7049 30.335 89.7049 27.7241V17.4542C89.7049 14.7736 90.7493 13.2418 93.0122 13.2418Z" fill="white"/>
    <path d="M66.0732 9.86498V21.9103C66.0732 31.0313 65.4813 31.7972 64.0192 31.7972C63.4622 31.7972 62.8007 31.7276 62.4874 31.6231V35.1392C63.3926 35.3829 64.2629 35.4525 65.3769 35.4525C69.3804 35.4525 70.7729 31.7275 70.7729 23.3376V13.6944H75.8556V35H80.625V9.86498H66.0732Z" fill="white"/>
    <path fill-rule="evenodd" clip-rule="evenodd" d="M105.08 35V9.86498H118.413V13.4507H109.849V19.543H113.853C117.752 19.543 120.258 23.4072 120.258 26.9582C120.258 31.7972 118.065 35 114.27 35H105.08ZM112.599 23.3724H109.849V31.4142H112.599C114.375 31.4142 115.384 30.335 115.384 27.5152C115.384 25.0435 114.375 23.3724 112.599 23.3724Z" fill="white"/>
    <path fill-rule="evenodd" clip-rule="evenodd" d="M124.27 9.86498V35H133.461C137.256 35 139.449 31.7972 139.449 26.9582C139.449 23.4072 136.942 19.543 133.043 19.543H129.04V13.4507H137.604V9.86498H124.27ZM129.04 23.3724H131.79C133.566 23.3724 134.575 25.0435 134.575 27.5152C134.575 30.335 133.566 31.4142 131.79 31.4142H129.04V23.3724Z" fill="white"/>
    <path d="M143.461 35V9.86498H147.917V19.2645C147.917 22.2584 147.778 26.053 147.325 28.1418H147.36L154.323 9.86498H159.475V35H155.019V25.496C155.019 21.6666 155.123 19.0208 155.611 16.758H155.576L148.613 35H143.461Z" fill="white"/>
    <path d="M167.92 17.1061C167.92 14.8432 168.894 13.2418 170.774 13.2418C172.794 13.2418 173.42 15.0869 173.42 16.758C173.42 18.986 172.062 19.9608 170.287 19.9608H169.277V23.5465H170.287C172.271 23.5465 173.768 24.6257 173.768 27.5848C173.768 30.1958 172.933 31.7624 170.635 31.7624C168.233 31.7624 167.537 30.0565 167.537 28.3159H162.907C162.907 33.7119 166.806 35.5918 170.914 35.5918C175.892 35.5918 178.642 33.0853 178.642 28.0374C178.642 24.2428 176.936 22.1888 174.43 21.5622C176.727 20.9703 178.294 18.7075 178.294 16.0965C178.294 11.0138 174.151 9.41241 170.774 9.41241C166.04 9.41241 163.29 12.7196 163.29 17.1061H167.92Z" fill="white"/>
    <path d="M182.658 35V9.86498H190.282L193.624 26.1923L196.967 9.86498H204.591V35H200.135V12.2323H200.1L195.33 35H191.919L187.149 12.2671H187.114V35H182.658Z" fill="white"/>
</svg>
