<svg width="170" height="46" viewBox="0 0 170 46" fill="none" xmlns="http://www.w3.org/2000/svg">
<path d="M6.545 13.335H9.135C11.305 13.335 12.04 14.42 12.04 16.555C12.04 18.725 11.165 19.985 9.065 19.985H6.545V13.335ZM6.545 23.59H9.625C11.41 23.59 12.285 24.99 12.285 27.475C12.285 30.31 11.41 31.395 9.625 31.395H6.545V23.59ZM1.75 35H11.41C15.295 35 17.185 31.885 17.185 27.51C17.185 24.22 15.925 22.435 13.44 21.42C15.54 21 16.835 18.305 16.835 15.89C16.835 12.67 15.05 9.73002 10.605 9.73002H1.75V35Z" fill="white"/>
<path d="M30.0152 9.73002V35H34.8102V13.58H43.2802V9.73002H30.0152Z" fill="white"/>
<path d="M46.2971 17.92V27.09C46.2971 33.46 49.7271 35.595 54.5221 35.595C59.3871 35.595 62.6421 33.53 62.6421 27.09V17.92C62.6421 11.48 59.3871 9.27502 54.5221 9.27502C49.7271 9.27502 46.2971 11.55 46.2971 17.92ZM54.5221 13.125C56.5871 13.125 57.7421 14.735 57.7421 17.43V27.685C57.7421 30.345 56.5871 31.745 54.5221 31.745C52.2471 31.745 51.1971 30.31 51.1971 27.685V17.36C51.1971 14.665 52.2471 13.125 54.5221 13.125Z" fill="white"/>
<path d="M81.9145 17.955V16.695C81.9145 12.04 79.2545 9.27502 74.3545 9.27502C69.1395 9.27502 66.4795 12.04 66.4795 17.955V27.16C66.4795 31.64 67.9845 35.595 74.2845 35.595C80.2695 35.595 81.9145 31.675 81.9145 27.09V26.005H77.1195V27.37C77.1195 30.625 76.1745 31.745 74.2495 31.745C72.2195 31.745 71.3795 30.66 71.3795 27.37V17.395C71.3795 14.21 72.2545 13.125 74.2845 13.125C76.3145 13.125 77.1195 14.21 77.1195 17.395V17.955H81.9145Z" fill="white"/>
<path d="M89.0632 9.73002V17.605C89.0632 24.57 88.4332 27.44 86.7532 31.15H85.2482V40.075H89.8682V35H100.333V40.075H104.953V31.15H103.413V9.73002H89.0632ZM98.6182 13.58V31.15H91.5132C92.9832 28 93.7882 25.13 93.7882 19.32V13.58H98.6182Z" fill="white"/>
<path d="M106.985 9.73002L113.915 29.715C113.425 31.15 112.725 31.745 111.78 31.745C111.15 31.745 110.73 31.535 110.45 31.465V35.14C111.29 35.42 112.235 35.595 113.355 35.595C115.7 35.595 117.205 34.16 118.535 30.17L125.395 9.73002H120.145L116.26 23.135L112.375 9.73002H106.985Z" fill="white"/>
<path d="M128.125 9.73002V35H132.605V12.145H132.64L137.435 35H140.865L145.66 12.11H145.695V35H150.175V9.73002H142.51L139.15 26.145L135.79 9.73002H128.125Z" fill="white"/>
<path d="M154.391 9.73002V35H167.901V31.15H159.186V23.31H167.131V19.46H159.186V13.58H167.901V9.73002H154.391Z" fill="white"/>
</svg>
