<svg xmlns="http://www.w3.org/2000/svg" width="24" height="24" viewBox="0 0 24 24" fill="none">
    <path fill-rule="evenodd" clip-rule="evenodd"
        d="M4.96484 10.2124C4.96484 7.37213 7.26733 5.06964 10.1076 5.06964C12.9479 5.06964 15.2504 7.37213 15.2504 10.2124C15.2504 13.0527 12.9479 15.3551 10.1076 15.3551C7.26733 15.3551 4.96484 13.0527 4.96484 10.2124ZM10.1076 3.56964C6.43891 3.56964 3.46484 6.5437 3.46484 10.2124C3.46484 13.8811 6.43891 16.8551 10.1076 16.8551C11.6717 16.8551 13.1096 16.3146 14.2445 15.41L18.8373 20.0028C19.1302 20.2957 19.6051 20.2957 19.898 20.0028C20.1909 19.7099 20.1909 19.235 19.898 18.9421L15.3052 14.3493C16.2098 13.2144 16.7504 11.7765 16.7504 10.2124C16.7504 6.5437 13.7763 3.56964 10.1076 3.56964Z"
        fill="#3D55CC" />
</svg>